<svg width="32" height="32" viewBox="0 0 32 32" fill="none" xmlns="http://www.w3.org/2000/svg">
<path d="M26.5 11V14C26.5 14.1326 26.4473 14.2598 26.3536 14.3536C26.2598 14.4473 26.1326 14.5 26 14.5C25.8674 14.5 25.7402 14.4473 25.6464 14.3536C25.5527 14.2598 25.5 14.1326 25.5 14V11.5H19C18.8674 11.5 18.7402 11.4473 18.6464 11.3536C18.5527 11.2598 18.5 11.1326 18.5 11V4.5H7C6.86739 4.5 6.74021 4.55268 6.64645 4.64645C6.55268 4.74022 6.5 4.86739 6.5 5V14C6.5 14.1326 6.44732 14.2598 6.35355 14.3536C6.25979 14.4473 6.13261 14.5 6 14.5C5.86739 14.5 5.74021 14.4473 5.64645 14.3536C5.55268 14.2598 5.5 14.1326 5.5 14V5C5.5 4.60218 5.65804 4.22064 5.93934 3.93934C6.22064 3.65804 6.60218 3.5 7 3.5H19C19.0657 3.49995 19.1307 3.51284 19.1914 3.53793C19.2521 3.56303 19.3073 3.59983 19.3538 3.64625L26.3538 10.6462C26.4002 10.6927 26.437 10.7479 26.4621 10.8086C26.4872 10.8693 26.5001 10.9343 26.5 11ZM24.7925 10.5L19.5 5.20625V10.5H24.7925Z" fill="white"/>
<path d="M25.1725 26.0771C24.9818 26.0771 24.8315 26.0258 24.7215 25.9231C24.6188 25.8205 24.5675 25.6701 24.5675 25.4721V18.8611C24.5675 18.6631 24.6188 18.5128 24.7215 18.4101C24.8315 18.3001 24.9855 18.2451 25.1835 18.2451H29.0995C29.2608 18.2451 29.3782 18.2855 29.4515 18.3661C29.5322 18.4395 29.5725 18.5495 29.5725 18.6961C29.5725 18.8501 29.5322 18.9675 29.4515 19.0481C29.3782 19.1288 29.2608 19.1691 29.0995 19.1691H25.7115V21.6441H28.8795C29.0262 21.6441 29.1398 21.6845 29.2205 21.7651C29.3085 21.8385 29.3525 21.9485 29.3525 22.0951C29.3525 22.2491 29.3085 22.3665 29.2205 22.4471C29.1398 22.5278 29.0262 22.5681 28.8795 22.5681H25.7115V25.4721C25.7115 25.8755 25.5318 26.0771 25.1725 26.0771Z" fill="white"/>
<path d="M19.307 26.0771C19.1236 26.0771 18.9806 26.0258 18.878 25.9231C18.7826 25.8205 18.735 25.6775 18.735 25.4941V19.2021H16.403C16.249 19.2021 16.128 19.1618 16.04 19.0811C15.952 18.9931 15.908 18.8721 15.908 18.7181C15.908 18.5641 15.952 18.4468 16.04 18.3661C16.128 18.2855 16.249 18.2451 16.403 18.2451H22.2C22.3613 18.2451 22.486 18.2855 22.574 18.3661C22.662 18.4468 22.706 18.5641 22.706 18.7181C22.706 18.8721 22.662 18.9931 22.574 19.0811C22.486 19.1618 22.3613 19.2021 22.2 19.2021H19.868V25.4941C19.868 25.6775 19.8203 25.8205 19.725 25.9231C19.637 26.0258 19.4976 26.0771 19.307 26.0771Z" fill="white"/>
<path d="M11.7745 26.0002C11.5912 26.0002 11.4482 25.9488 11.3455 25.8462C11.2429 25.7435 11.1915 25.6005 11.1915 25.4172V18.7842C11.1915 18.5935 11.2392 18.4505 11.3345 18.3552C11.4372 18.2525 11.5802 18.2012 11.7635 18.2012C11.9469 18.2012 12.0862 18.2525 12.1815 18.3552C12.2842 18.4505 12.3355 18.5935 12.3355 18.7842V25.0212H15.7455C15.9069 25.0212 16.0315 25.0652 16.1195 25.1532C16.2075 25.2338 16.2515 25.3512 16.2515 25.5052C16.2515 25.6592 16.2075 25.7802 16.1195 25.8682C16.0315 25.9562 15.9069 26.0002 15.7455 26.0002H11.7745Z" fill="white"/>
<path d="M5.77559 26.099C4.93226 26.099 4.22093 25.9413 3.64159 25.626C3.06226 25.3033 2.62226 24.845 2.32159 24.251C2.02826 23.657 1.88159 22.9493 1.88159 22.128C1.88159 21.512 1.96593 20.962 2.13459 20.478C2.31059 19.9867 2.55993 19.5687 2.88259 19.224C3.21259 18.872 3.61226 18.6043 4.08159 18.421C4.55826 18.2377 5.09726 18.146 5.69859 18.146C6.13859 18.146 6.57126 18.2047 6.99659 18.322C7.42193 18.432 7.81059 18.6153 8.16259 18.872C8.26526 18.9453 8.33126 19.0297 8.36059 19.125C8.38993 19.2203 8.38993 19.3193 8.36059 19.422C8.33859 19.5173 8.29093 19.6017 8.21759 19.675C8.15159 19.7483 8.06726 19.7923 7.96459 19.807C7.86926 19.8217 7.76293 19.7923 7.64559 19.719C7.35959 19.521 7.05893 19.378 6.74359 19.29C6.42826 19.1947 6.07993 19.147 5.69859 19.147C5.12659 19.147 4.64259 19.2643 4.24659 19.499C3.85793 19.7337 3.56459 20.0747 3.36659 20.522C3.16859 20.962 3.06959 21.4973 3.06959 22.128C3.06959 23.1033 3.30059 23.844 3.76259 24.35C4.22459 24.856 4.91026 25.109 5.81959 25.109C6.14959 25.109 6.47226 25.0797 6.78759 25.021C7.11026 24.955 7.41826 24.8633 7.71159 24.746L7.48059 25.318V22.755H6.06159C5.91493 22.755 5.79759 22.7183 5.70959 22.645C5.62893 22.5643 5.58859 22.4543 5.58859 22.315C5.58859 22.1757 5.62893 22.073 5.70959 22.007C5.79759 21.9337 5.91493 21.897 6.06159 21.897H7.96459C8.11859 21.897 8.23593 21.9373 8.31659 22.018C8.39726 22.0987 8.43759 22.216 8.43759 22.37V25.142C8.43759 25.274 8.41193 25.3877 8.36059 25.483C8.31659 25.571 8.23959 25.637 8.12959 25.681C7.81426 25.8057 7.44393 25.9083 7.01859 25.989C6.59326 26.0623 6.17893 26.099 5.77559 26.099Z" fill="white"/>
</svg>
