<svg width="32" height="32" viewBox="0 0 32 32" fill="none" xmlns="http://www.w3.org/2000/svg">
<path d="M26.5 10V13C26.5 13.1326 26.4473 13.2598 26.3536 13.3536C26.2598 13.4473 26.1326 13.5 26 13.5C25.8674 13.5 25.7402 13.4473 25.6464 13.3536C25.5527 13.2598 25.5 13.1326 25.5 13V10.5H19C18.8674 10.5 18.7402 10.4473 18.6464 10.3536C18.5527 10.2598 18.5 10.1326 18.5 10V3.5H7C6.86739 3.5 6.74021 3.55268 6.64645 3.64645C6.55268 3.74022 6.5 3.86739 6.5 4V13C6.5 13.1326 6.44732 13.2598 6.35355 13.3536C6.25979 13.4473 6.13261 13.5 6 13.5C5.86739 13.5 5.74021 13.4473 5.64645 13.3536C5.55268 13.2598 5.5 13.1326 5.5 13V4C5.5 3.60218 5.65804 3.22064 5.93934 2.93934C6.22064 2.65804 6.60218 2.5 7 2.5H19C19.0657 2.49995 19.1307 2.51284 19.1914 2.53793C19.2521 2.56303 19.3073 2.59983 19.3538 2.64625L26.3538 9.64625C26.4002 9.69272 26.437 9.74788 26.4621 9.80857C26.4872 9.86927 26.5001 9.93432 26.5 10ZM24.7925 9.5L19.5 4.20625V9.5H24.7925Z" fill="white"/>
<path d="M23.1438 30.063C23.0058 30.063 22.8978 30.024 22.8198 29.946C22.7418 29.868 22.7028 29.757 22.7028 29.613V24.06C22.7028 23.91 22.7388 23.796 22.8108 23.718C22.8888 23.634 22.9908 23.592 23.1168 23.592C23.2248 23.592 23.3058 23.613 23.3598 23.655C23.4198 23.691 23.4888 23.76 23.5668 23.862L27.2748 28.749H27.0498V24.033C27.0498 23.895 27.0858 23.787 27.1578 23.709C27.2358 23.631 27.3438 23.592 27.4818 23.592C27.6258 23.592 27.7338 23.631 27.8058 23.709C27.8778 23.787 27.9138 23.895 27.9138 24.033V29.622C27.9138 29.76 27.8778 29.868 27.8058 29.946C27.7398 30.024 27.6498 30.063 27.5358 30.063C27.4278 30.063 27.3378 30.042 27.2658 30C27.1998 29.958 27.1278 29.886 27.0498 29.784L23.3598 24.906H23.5668V29.613C23.5668 29.757 23.5308 29.868 23.4588 29.946C23.3868 30.024 23.2818 30.063 23.1438 30.063Z" fill="white"/>
<path d="M17.4783 30.081C16.8783 30.081 16.3533 29.949 15.9033 29.685C15.4593 29.415 15.1143 29.037 14.8683 28.551C14.6283 28.059 14.5083 27.483 14.5083 26.823C14.5083 26.325 14.5773 25.878 14.7153 25.482C14.8533 25.08 15.0513 24.738 15.3093 24.456C15.5673 24.168 15.8793 23.949 16.2453 23.799C16.6113 23.649 17.0223 23.574 17.4783 23.574C18.0843 23.574 18.6093 23.706 19.0533 23.97C19.4973 24.234 19.8393 24.609 20.0793 25.095C20.3253 25.581 20.4483 26.154 20.4483 26.814C20.4483 27.312 20.3793 27.762 20.2413 28.164C20.1033 28.566 19.9023 28.911 19.6383 29.199C19.3803 29.487 19.0683 29.706 18.7023 29.856C18.3363 30.006 17.9283 30.081 17.4783 30.081ZM17.4783 29.271C17.8983 29.271 18.2553 29.175 18.5493 28.983C18.8493 28.791 19.0773 28.512 19.2333 28.146C19.3953 27.78 19.4763 27.339 19.4763 26.823C19.4763 26.049 19.3023 25.449 18.9543 25.023C18.6063 24.597 18.1143 24.384 17.4783 24.384C17.0583 24.384 16.6983 24.48 16.3983 24.672C16.1043 24.858 15.8763 25.134 15.7143 25.5C15.5583 25.866 15.4803 26.307 15.4803 26.823C15.4803 27.591 15.6543 28.191 16.0023 28.623C16.3563 29.055 16.8483 29.271 17.4783 29.271Z" fill="white"/>
<path d="M10.2407 30.081C9.96469 30.081 9.69469 30.06 9.43069 30.018C9.16669 29.976 8.91769 29.913 8.68369 29.829C8.44969 29.739 8.23969 29.631 8.05369 29.505C7.96369 29.439 7.90069 29.364 7.86469 29.28C7.83469 29.196 7.82569 29.115 7.83769 29.037C7.85569 28.953 7.89169 28.881 7.94569 28.821C7.99969 28.761 8.06569 28.725 8.14369 28.713C8.22169 28.695 8.30869 28.719 8.40469 28.785C8.67469 28.959 8.95969 29.088 9.25969 29.172C9.55969 29.25 9.88669 29.289 10.2407 29.289C10.7507 29.289 11.1257 29.199 11.3657 29.019C11.6117 28.833 11.7347 28.593 11.7347 28.299C11.7347 28.059 11.6477 27.87 11.4737 27.732C11.2997 27.588 11.0087 27.474 10.6007 27.39L9.63769 27.192C9.06769 27.072 8.64169 26.874 8.35969 26.598C8.08369 26.322 7.94569 25.95 7.94569 25.482C7.94569 25.2 8.00269 24.942 8.11669 24.708C8.23669 24.474 8.40169 24.273 8.61169 24.105C8.82169 23.931 9.07369 23.799 9.36769 23.709C9.66169 23.619 9.98269 23.574 10.3307 23.574C10.7027 23.574 11.0507 23.622 11.3747 23.718C11.7047 23.814 11.9987 23.961 12.2567 24.159C12.3347 24.213 12.3857 24.282 12.4097 24.366C12.4397 24.444 12.4457 24.522 12.4277 24.6C12.4157 24.678 12.3827 24.744 12.3287 24.798C12.2747 24.852 12.2057 24.885 12.1217 24.897C12.0377 24.903 11.9447 24.873 11.8427 24.807C11.6087 24.651 11.3687 24.54 11.1227 24.474C10.8827 24.402 10.6157 24.366 10.3217 24.366C10.0277 24.366 9.76969 24.411 9.54769 24.501C9.33169 24.591 9.16369 24.717 9.04369 24.879C8.92969 25.041 8.87269 25.233 8.87269 25.455C8.87269 25.707 8.95369 25.908 9.11569 26.058C9.27769 26.208 9.54769 26.322 9.92569 26.4L10.8797 26.598C11.4797 26.724 11.9267 26.919 12.2207 27.183C12.5147 27.447 12.6617 27.798 12.6617 28.236C12.6617 28.518 12.6047 28.773 12.4907 29.001C12.3767 29.223 12.2147 29.415 12.0047 29.577C11.7947 29.739 11.5397 29.865 11.2397 29.955C10.9457 30.039 10.6127 30.081 10.2407 30.081Z" fill="white"/>
<path d="M3.67068 30.054C3.53268 30.06 3.42468 30.024 3.34668 29.946C3.26868 29.868 3.22968 29.769 3.22968 29.649C3.22968 29.559 3.25968 29.478 3.31968 29.406C3.37368 29.334 3.45468 29.295 3.56268 29.289L3.84168 29.271C4.12968 29.247 4.34868 29.151 4.49868 28.983C4.64868 28.809 4.72368 28.569 4.72368 28.263V24.06C4.72368 23.904 4.76268 23.787 4.84068 23.709C4.91868 23.631 5.03268 23.592 5.18268 23.592C5.33268 23.592 5.44668 23.631 5.52468 23.709C5.60868 23.787 5.65068 23.904 5.65068 24.06V28.263C5.65068 28.623 5.58468 28.932 5.45268 29.19C5.32668 29.442 5.14068 29.64 4.89468 29.784C4.64868 29.928 4.34268 30.012 3.97668 30.036L3.67068 30.054Z" fill="white"/>
<path d="M22.9354 22.081C22.3354 22.081 21.8104 21.949 21.3604 21.685C20.9164 21.415 20.5714 21.037 20.3254 20.551C20.0854 20.059 19.9654 19.483 19.9654 18.823C19.9654 18.325 20.0344 17.878 20.1724 17.482C20.3104 17.08 20.5084 16.738 20.7664 16.456C21.0244 16.168 21.3364 15.949 21.7024 15.799C22.0684 15.649 22.4794 15.574 22.9354 15.574C23.5414 15.574 24.0664 15.706 24.5104 15.97C24.9544 16.234 25.2964 16.609 25.5364 17.095C25.7824 17.581 25.9054 18.154 25.9054 18.814C25.9054 19.312 25.8364 19.762 25.6984 20.164C25.5604 20.566 25.3594 20.911 25.0954 21.199C24.8374 21.487 24.5254 21.706 24.1594 21.856C23.7934 22.006 23.3854 22.081 22.9354 22.081ZM22.9354 21.271C23.3554 21.271 23.7124 21.175 24.0064 20.983C24.3064 20.791 24.5344 20.512 24.6904 20.146C24.8524 19.78 24.9334 19.339 24.9334 18.823C24.9334 18.049 24.7594 17.449 24.4114 17.023C24.0634 16.597 23.5714 16.384 22.9354 16.384C22.5154 16.384 22.1554 16.48 21.8554 16.672C21.5614 16.858 21.3334 17.134 21.1714 17.5C21.0154 17.866 20.9374 18.307 20.9374 18.823C20.9374 19.591 21.1114 20.191 21.4594 20.623C21.8134 21.055 22.3054 21.271 22.9354 21.271Z" fill="white"/>
<path d="M14.4031 22C14.2411 22 14.1151 21.958 14.0251 21.874C13.9411 21.784 13.8991 21.658 13.8991 21.496V16.159C13.8991 15.997 13.9411 15.874 14.0251 15.79C14.1151 15.7 14.2411 15.655 14.4031 15.655H17.6881C17.8141 15.655 17.9101 15.688 17.9761 15.754C18.0421 15.814 18.0751 15.904 18.0751 16.024C18.0751 16.15 18.0421 16.246 17.9761 16.312C17.9101 16.378 17.8141 16.411 17.6881 16.411H14.7991V18.4H17.4901C17.6221 18.4 17.7181 18.433 17.7781 18.499C17.8441 18.565 17.8771 18.658 17.8771 18.778C17.8771 18.904 17.8441 19 17.7781 19.066C17.7181 19.126 17.6221 19.156 17.4901 19.156H14.7991V21.244H17.6881C17.8141 21.244 17.9101 21.277 17.9761 21.343C18.0421 21.409 18.0751 21.502 18.0751 21.622C18.0751 21.748 18.0421 21.844 17.9761 21.91C17.9101 21.97 17.8141 22 17.6881 22H14.4031Z" fill="white"/>
<path d="M9.28613 22.081C8.59613 22.081 8.01413 21.952 7.54013 21.694C7.06613 21.43 6.70613 21.055 6.46013 20.569C6.22013 20.083 6.10013 19.504 6.10013 18.832C6.10013 18.328 6.16913 17.878 6.30713 17.482C6.45113 17.08 6.65513 16.738 6.91913 16.456C7.18913 16.168 7.51613 15.949 7.90013 15.799C8.29013 15.649 8.73113 15.574 9.22313 15.574C9.58313 15.574 9.93713 15.622 10.2851 15.718C10.6331 15.808 10.9511 15.958 11.2391 16.168C11.3231 16.228 11.3771 16.297 11.4011 16.375C11.4251 16.453 11.4251 16.534 11.4011 16.618C11.3831 16.696 11.3441 16.765 11.2841 16.825C11.2301 16.885 11.1611 16.921 11.0771 16.933C10.9991 16.945 10.9121 16.921 10.8161 16.861C10.5821 16.699 10.3361 16.582 10.0781 16.51C9.82013 16.432 9.53513 16.393 9.22313 16.393C8.75513 16.393 8.35913 16.489 8.03513 16.681C7.71713 16.873 7.47713 17.152 7.31513 17.518C7.15313 17.878 7.07213 18.316 7.07213 18.832C7.07213 19.63 7.26113 20.236 7.63913 20.65C8.01713 21.064 8.57813 21.271 9.32213 21.271C9.59213 21.271 9.85613 21.247 10.1141 21.199C10.3781 21.145 10.6301 21.07 10.8701 20.974L10.6811 21.442V19.345H9.52013C9.40013 19.345 9.30413 19.315 9.23213 19.255C9.16613 19.189 9.13313 19.099 9.13313 18.985C9.13313 18.871 9.16613 18.787 9.23213 18.733C9.30413 18.673 9.40013 18.643 9.52013 18.643H11.0771C11.2031 18.643 11.2991 18.676 11.3651 18.742C11.4311 18.808 11.4641 18.904 11.4641 19.03V21.298C11.4641 21.406 11.4431 21.499 11.4011 21.577C11.3651 21.649 11.3021 21.703 11.2121 21.739C10.9541 21.841 10.6511 21.925 10.3031 21.991C9.95513 22.051 9.61613 22.081 9.28613 22.081Z" fill="white"/>
</svg>
