<svg width="32" height="32" viewBox="0 0 32 32" fill="none" xmlns="http://www.w3.org/2000/svg">
<path d="M26.3538 10.6462L19.3538 3.64625C19.3073 3.59983 19.2521 3.56303 19.1914 3.53793C19.1307 3.51284 19.0657 3.49995 19 3.5H7C6.60218 3.5 6.22064 3.65804 5.93934 3.93934C5.65804 4.22064 5.5 4.60218 5.5 5V14C5.5 14.1326 5.55268 14.2598 5.64645 14.3536C5.74021 14.4473 5.86739 14.5 6 14.5C6.13261 14.5 6.25979 14.4473 6.35355 14.3536C6.44732 14.2598 6.5 14.1326 6.5 14V5C6.5 4.86739 6.55268 4.74022 6.64645 4.64645C6.74021 4.55268 6.86739 4.5 7 4.5H18.5V11C18.5 11.1326 18.5527 11.2598 18.6464 11.3536C18.7402 11.4473 18.8674 11.5 19 11.5H25.5V14C25.5 14.1326 25.5527 14.2598 25.6464 14.3536C25.7402 14.4473 25.8674 14.5 26 14.5C26.1326 14.5 26.2598 14.4473 26.3536 14.3536C26.4473 14.2598 26.5 14.1326 26.5 14V11C26.5001 10.9343 26.4872 10.8693 26.4621 10.8086C26.437 10.7479 26.4002 10.6927 26.3538 10.6462ZM19.5 10.5V5.20625L24.7925 10.5H19.5Z" fill="currentColor"/>
<path fill-rule="evenodd" clip-rule="evenodd" d="M12.421 8.13379C12.3942 8.09264 12.3578 8.05889 12.3151 8.03555C12.2724 8.01221 12.2246 8 12.1762 8C12.1277 8 12.08 8.01221 12.0373 8.03555C11.9946 8.05889 11.9582 8.09264 11.9313 8.13379L10.1482 10.7398L9.00081 9.06267C8.97415 9.02056 8.93757 8.98595 8.89441 8.96198C8.85125 8.93801 8.80289 8.92545 8.75375 8.92545C8.7046 8.92545 8.65624 8.93801 8.61309 8.96198C8.56993 8.98595 8.53334 9.02056 8.50668 9.06267L7.03629 11.5619L5.5659 14C5.53742 14.0453 5.56778 14.1355 5.5659 14.1892C5.56403 14.243 5.71703 14.2963 5.74229 14.3436C5.76756 14.3908 5.80481 14.4302 5.85015 14.4577C5.8955 14.4852 5.94726 14.4998 6.00002 14.4999L15.6496 14.5038C15.7028 14.5038 15.7551 14.4891 15.8008 14.4612C15.8465 14.4333 15.8839 14.3932 15.909 14.3454C15.9342 14.2975 15.9461 14.2435 15.9435 14.1892C15.9409 14.135 15.924 14.0825 15.8944 14.0373L12.421 8.13379ZM8.94079 10.3682L7.9704 11.8889L7.00002 13.4999H14.5L12.1762 9.24993L10.3952 11.8665C10.3685 11.9083 10.3318 11.9424 10.2886 11.9658C10.2454 11.9891 10.1971 12.0009 10.1482 12C10.0994 11.9996 10.0515 11.9869 10.0088 11.9629C9.96601 11.939 9.92978 11.9045 9.90332 11.8628L8.94079 10.3682Z" fill="currentColor"/>
<path d="M22.364 26.099C21.5207 26.099 20.8094 25.9413 20.23 25.626C19.6507 25.3033 19.2107 24.845 18.91 24.251C18.6167 23.657 18.47 22.9493 18.47 22.128C18.47 21.512 18.5544 20.962 18.723 20.478C18.899 19.9867 19.1484 19.5687 19.471 19.224C19.801 18.872 20.2007 18.6043 20.67 18.421C21.1467 18.2377 21.6857 18.146 22.287 18.146C22.727 18.146 23.1597 18.2047 23.585 18.322C24.0104 18.432 24.399 18.6153 24.751 18.872C24.8537 18.9453 24.9197 19.0297 24.949 19.125C24.9784 19.2203 24.9784 19.3193 24.949 19.422C24.927 19.5173 24.8794 19.6017 24.806 19.675C24.74 19.7483 24.6557 19.7923 24.553 19.807C24.4577 19.8217 24.3514 19.7923 24.234 19.719C23.948 19.521 23.6474 19.378 23.332 19.29C23.0167 19.1947 22.6684 19.147 22.287 19.147C21.715 19.147 21.231 19.2643 20.835 19.499C20.4464 19.7337 20.153 20.0747 19.955 20.522C19.757 20.962 19.658 21.4973 19.658 22.128C19.658 23.1033 19.889 23.844 20.351 24.35C20.813 24.856 21.4987 25.109 22.408 25.109C22.738 25.109 23.0607 25.0797 23.376 25.021C23.6987 24.955 24.0067 24.8633 24.3 24.746L24.069 25.318V22.755H22.65C22.5034 22.755 22.386 22.7183 22.298 22.645C22.2174 22.5643 22.177 22.4543 22.177 22.315C22.177 22.1757 22.2174 22.073 22.298 22.007C22.386 21.9337 22.5034 21.897 22.65 21.897H24.553C24.707 21.897 24.8244 21.9373 24.905 22.018C24.9857 22.0987 25.026 22.216 25.026 22.37V25.142C25.026 25.274 25.0004 25.3877 24.949 25.483C24.905 25.571 24.828 25.637 24.718 25.681C24.4027 25.8057 24.0324 25.9083 23.607 25.989C23.1817 26.0623 22.7674 26.099 22.364 26.099Z" fill="currentColor"/>
<path d="M11.3128 26.0771C11.1295 26.0771 10.9865 26.0258 10.8838 25.9231C10.7885 25.8205 10.7408 25.6775 10.7408 25.4941V18.8281C10.7408 18.6375 10.7922 18.4945 10.8948 18.3991C10.9975 18.2965 11.1405 18.2451 11.3238 18.2451H13.9528C14.7888 18.2451 15.4342 18.4541 15.8888 18.8721C16.3435 19.2828 16.5708 19.8621 16.5708 20.6101C16.5708 21.3655 16.3435 21.9521 15.8888 22.3701C15.4342 22.7808 14.7888 22.9861 13.9528 22.9861H11.8848V25.4941C11.8848 25.6775 11.8372 25.8205 11.7418 25.9231C11.6465 26.0258 11.5035 26.0771 11.3128 26.0771ZM11.8848 22.0731H13.7878C14.3378 22.0731 14.7522 21.9521 15.0308 21.7101C15.3168 21.4608 15.4598 21.0941 15.4598 20.6101C15.4598 20.1335 15.3168 19.7741 15.0308 19.5321C14.7522 19.2828 14.3378 19.1581 13.7878 19.1581H11.8848V22.0731Z" fill="currentColor"/>
<path d="M5.51806 26.066C5.3494 26.0733 5.2174 26.0293 5.12206 25.934C5.02673 25.8386 4.97906 25.7176 4.97906 25.571C4.97906 25.461 5.01573 25.362 5.08906 25.274C5.15506 25.186 5.25406 25.1383 5.38606 25.131L5.72706 25.109C6.07906 25.0796 6.34673 24.9623 6.53007 24.757C6.7134 24.5443 6.80507 24.251 6.80507 23.877V18.74C6.80507 18.5493 6.85273 18.4063 6.94807 18.311C7.0434 18.2156 7.18273 18.168 7.36607 18.168C7.5494 18.168 7.68873 18.2156 7.78407 18.311C7.88673 18.4063 7.93807 18.5493 7.93807 18.74V23.877C7.93807 24.317 7.8574 24.6946 7.69606 25.01C7.54206 25.318 7.31473 25.56 7.01406 25.736C6.7134 25.912 6.3394 26.0146 5.89206 26.044L5.51806 26.066Z" fill="currentColor"/>
</svg>
