<svg width="32" height="32" viewBox="0 0 32 32" fill="none" xmlns="http://www.w3.org/2000/svg">
<path d="M25.5 14C25.5 14.1326 25.5527 14.2598 25.6464 14.3536C25.7402 14.4473 25.8674 14.5 26 14.5C26.1326 14.5 26.2598 14.4473 26.3536 14.3536C26.4473 14.2598 26.5 14.1326 26.5 14V11C26.5001 10.9343 26.4872 10.8693 26.4621 10.8086C26.437 10.7479 26.4002 10.6927 26.3538 10.6462L19.3538 3.64625C19.3073 3.59983 19.2521 3.56303 19.1914 3.53793C19.1307 3.51284 19.0657 3.49995 19 3.5H7C6.60218 3.5 6.22064 3.65804 5.93934 3.93934C5.65804 4.22064 5.5 4.60218 5.5 5V14C5.5 14.1326 5.55268 14.2598 5.64645 14.3536C5.74021 14.4473 5.86739 14.5 6 14.5C6.13261 14.5 6.25979 14.4473 6.35355 14.3536C6.44732 14.2598 6.5 14.1326 6.5 14V5C6.5 4.86739 6.55268 4.74022 6.64645 4.64645C6.74021 4.55268 6.86739 4.5 7 4.5H18.5V11C18.5 11.1326 18.5527 11.2598 18.6464 11.3536C18.7402 11.4473 18.8674 11.5 19 11.5H25.5V14ZM19.5 10.5V5.20625L24.7925 10.5H19.5Z" fill="currentColor"/>
<path fill-rule="evenodd" clip-rule="evenodd" d="M12.421 8.13379C12.3941 8.09264 12.3577 8.05889 12.315 8.03555C12.2723 8.01221 12.2246 8 12.1761 8C12.1277 8 12.0799 8.01221 12.0372 8.03555C11.9945 8.05889 11.9581 8.09264 11.9313 8.13379L10.1481 10.7398L9.00075 9.06267C8.97409 9.02056 8.93751 8.98595 8.89435 8.96198C8.85119 8.93801 8.80283 8.92545 8.75369 8.92545C8.70454 8.92545 8.65618 8.93801 8.61302 8.96198C8.56987 8.98595 8.53328 9.02056 8.50662 9.06267L7.03623 11.5619L5.56584 14C5.53735 14.0453 5.56772 14.1355 5.56584 14.1892C5.56397 14.243 5.71697 14.2963 5.74223 14.3436C5.76749 14.3908 5.80475 14.4302 5.85009 14.4577C5.89544 14.4852 5.9472 14.4998 5.99995 14.4999L15.6495 14.5038C15.7028 14.5038 15.755 14.4891 15.8007 14.4612C15.8464 14.4333 15.8838 14.3932 15.909 14.3454C15.9341 14.2975 15.946 14.2435 15.9435 14.1892C15.9409 14.135 15.9239 14.0825 15.8944 14.0373L12.421 8.13379ZM8.94073 10.3682L7.97034 11.8889L6.99995 13.4999H14.5L12.1761 9.24993L10.3952 11.8665C10.3684 11.9083 10.3317 11.9424 10.2885 11.9658C10.2453 11.9891 10.197 12.0009 10.1481 12C10.0993 11.9996 10.0514 11.9869 10.0087 11.9629C9.96595 11.939 9.92972 11.9045 9.90326 11.8628L8.94073 10.3682Z" fill="currentColor"/>
<path d="M25.1253 26.099C24.2819 26.099 23.5706 25.9413 22.9913 25.626C22.4119 25.3033 21.9719 24.845 21.6713 24.251C21.3779 23.657 21.2313 22.9493 21.2313 22.128C21.2313 21.512 21.3156 20.962 21.4843 20.478C21.6603 19.9867 21.9096 19.5687 22.2323 19.224C22.5623 18.872 22.9619 18.6043 23.4313 18.421C23.9079 18.2377 24.4469 18.146 25.0483 18.146C25.4883 18.146 25.9209 18.2047 26.3463 18.322C26.7716 18.432 27.1603 18.6153 27.5123 18.872C27.6149 18.9453 27.6809 19.0297 27.7103 19.125C27.7396 19.2203 27.7396 19.3193 27.7103 19.422C27.6883 19.5173 27.6406 19.6017 27.5673 19.675C27.5013 19.7483 27.4169 19.7923 27.3143 19.807C27.2189 19.8217 27.1126 19.7923 26.9953 19.719C26.7093 19.521 26.4086 19.378 26.0933 19.29C25.7779 19.1947 25.4296 19.147 25.0483 19.147C24.4763 19.147 23.9923 19.2643 23.5963 19.499C23.2076 19.7337 22.9143 20.0747 22.7163 20.522C22.5183 20.962 22.4193 21.4973 22.4193 22.128C22.4193 23.1033 22.6503 23.844 23.1123 24.35C23.5743 24.856 24.2599 25.109 25.1693 25.109C25.4993 25.109 25.8219 25.0797 26.1373 25.021C26.4599 24.955 26.7679 24.8633 27.0613 24.746L26.8303 25.318V22.755H25.4113C25.2646 22.755 25.1473 22.7183 25.0593 22.645C24.9786 22.5643 24.9383 22.4543 24.9383 22.315C24.9383 22.1757 24.9786 22.073 25.0593 22.007C25.1473 21.9337 25.2646 21.897 25.4113 21.897H27.3143C27.4683 21.897 27.5856 21.9373 27.6663 22.018C27.7469 22.0987 27.7873 22.216 27.7873 22.37V25.142C27.7873 25.274 27.7616 25.3877 27.7103 25.483C27.6663 25.571 27.5893 25.637 27.4793 25.681C27.1639 25.8057 26.7936 25.9083 26.3683 25.989C25.9429 26.0623 25.5286 26.099 25.1253 26.099Z" fill="currentColor"/>
<path d="M12.8594 26.077C12.6908 26.077 12.5588 26.0293 12.4634 25.934C12.3681 25.8386 12.3204 25.703 12.3204 25.527V18.74C12.3204 18.5566 12.3644 18.4173 12.4524 18.322C12.5478 18.2193 12.6724 18.168 12.8264 18.168C12.9584 18.168 13.0574 18.1936 13.1234 18.245C13.1968 18.289 13.2811 18.3733 13.3764 18.498L17.9084 24.471H17.6334V18.707C17.6334 18.5383 17.6774 18.4063 17.7654 18.311C17.8608 18.2156 17.9928 18.168 18.1614 18.168C18.3374 18.168 18.4694 18.2156 18.5574 18.311C18.6454 18.4063 18.6894 18.5383 18.6894 18.707V25.538C18.6894 25.7066 18.6454 25.8386 18.5574 25.934C18.4768 26.0293 18.3668 26.077 18.2274 26.077C18.0954 26.077 17.9854 26.0513 17.8974 26C17.8168 25.9486 17.7288 25.8606 17.6334 25.736L13.1234 19.774H13.3764V25.527C13.3764 25.703 13.3324 25.8386 13.2444 25.934C13.1564 26.0293 13.0281 26.077 12.8594 26.077Z" fill="currentColor"/>
<path d="M4.83482 26.0771C4.65148 26.0771 4.50848 26.0258 4.40582 25.9231C4.31048 25.8205 4.26282 25.6775 4.26282 25.4941V18.8281C4.26282 18.6375 4.31415 18.4945 4.41682 18.3991C4.51948 18.2965 4.66248 18.2451 4.84582 18.2451H7.47482C8.31082 18.2451 8.95615 18.4541 9.41082 18.8721C9.86548 19.2828 10.0928 19.8621 10.0928 20.6101C10.0928 21.3655 9.86548 21.9521 9.41082 22.3701C8.95615 22.7808 8.31082 22.9861 7.47482 22.9861H5.40682V25.4941C5.40682 25.6775 5.35915 25.8205 5.26382 25.9231C5.16848 26.0258 5.02548 26.0771 4.83482 26.0771ZM5.40682 22.0731H7.30982C7.85982 22.0731 8.27415 21.9521 8.55282 21.7101C8.83882 21.4608 8.98182 21.0941 8.98182 20.6101C8.98182 20.1335 8.83882 19.7741 8.55282 19.5321C8.27415 19.2828 7.85982 19.1581 7.30982 19.1581H5.40682V22.0731Z" fill="currentColor"/>
</svg>
