<svg width="32" height="32" viewBox="0 0 32 32" fill="none" xmlns="http://www.w3.org/2000/svg">
<path d="M26.5 11V14C26.5 14.1326 26.4473 14.2598 26.3536 14.3536C26.2598 14.4473 26.1326 14.5 26 14.5C25.8674 14.5 25.7402 14.4473 25.6464 14.3536C25.5527 14.2598 25.5 14.1326 25.5 14V11.5H19C18.8674 11.5 18.7402 11.4473 18.6464 11.3536C18.5527 11.2598 18.5 11.1326 18.5 11V4.5H7C6.86739 4.5 6.74021 4.55268 6.64645 4.64645C6.55268 4.74022 6.5 4.86739 6.5 5V14C6.5 14.1326 6.44732 14.2598 6.35355 14.3536C6.25979 14.4473 6.13261 14.5 6 14.5C5.86739 14.5 5.74021 14.4473 5.64645 14.3536C5.55268 14.2598 5.5 14.1326 5.5 14V5C5.5 4.60218 5.65804 4.22064 5.93934 3.93934C6.22064 3.65804 6.60218 3.5 7 3.5H19C19.0657 3.49995 19.1307 3.51284 19.1914 3.53793C19.2521 3.56303 19.3073 3.59983 19.3538 3.64625L26.3538 10.6462C26.4002 10.6927 26.437 10.7479 26.4621 10.8086C26.4872 10.8693 26.5001 10.9343 26.5 11ZM24.7925 10.5L19.5 5.20625V10.5H24.7925Z" fill="white"/>
<path d="M23.0499 26.0002C22.8666 26.0002 22.7236 25.9488 22.6209 25.8462C22.5183 25.7435 22.4669 25.6005 22.4669 25.4172V18.7842C22.4669 18.5935 22.5146 18.4505 22.6099 18.3552C22.7126 18.2525 22.8556 18.2012 23.0389 18.2012C23.2223 18.2012 23.3616 18.2525 23.4569 18.3552C23.5596 18.4505 23.6109 18.5935 23.6109 18.7842V25.0212H27.0209C27.1823 25.0212 27.3069 25.0652 27.3949 25.1532C27.4829 25.2338 27.5269 25.3512 27.5269 25.5052C27.5269 25.6592 27.4829 25.7802 27.3949 25.8682C27.3069 25.9562 27.1823 26.0002 27.0209 26.0002H23.0499Z" fill="white"/>
<path d="M17.2064 26.0771C17.023 26.0771 16.88 26.0258 16.7774 25.9231C16.682 25.8205 16.6344 25.6775 16.6344 25.4941V19.2021H14.3024C14.1484 19.2021 14.0274 19.1618 13.9394 19.0811C13.8514 18.9931 13.8074 18.8721 13.8074 18.7181C13.8074 18.5641 13.8514 18.4468 13.9394 18.3661C14.0274 18.2855 14.1484 18.2451 14.3024 18.2451H20.0994C20.2607 18.2451 20.3854 18.2855 20.4734 18.3661C20.5614 18.4468 20.6054 18.5641 20.6054 18.7181C20.6054 18.8721 20.5614 18.9931 20.4734 19.0811C20.3854 19.1618 20.2607 19.2021 20.0994 19.2021H17.7674V25.4941C17.7674 25.6775 17.7197 25.8205 17.6244 25.9231C17.5364 26.0258 17.397 26.0771 17.2064 26.0771Z" fill="white"/>
<path d="M4.81779 26.077C4.64913 26.077 4.51713 26.0293 4.42179 25.934C4.33379 25.8386 4.28979 25.7066 4.28979 25.538V18.707C4.28979 18.531 4.33746 18.399 4.43279 18.311C4.52813 18.2156 4.65646 18.168 4.81779 18.168C4.9718 18.168 5.08913 18.1973 5.1698 18.256C5.2578 18.3073 5.33846 18.4026 5.41179 18.542L8.29379 23.921H7.9528L10.8238 18.542C10.8971 18.4026 10.9741 18.3073 11.0548 18.256C11.1355 18.1973 11.2528 18.168 11.4068 18.168C11.5681 18.168 11.6928 18.2156 11.7808 18.311C11.8688 18.399 11.9128 18.531 11.9128 18.707V25.538C11.9128 25.7066 11.8688 25.8386 11.7808 25.934C11.7001 26.0293 11.5755 26.077 11.4068 26.077C11.2381 26.077 11.1098 26.0293 11.0218 25.934C10.9338 25.8386 10.8898 25.7066 10.8898 25.538V19.862H11.1318L8.57979 24.581C8.52113 24.691 8.4588 24.7716 8.3928 24.823C8.3268 24.8743 8.23513 24.9 8.1178 24.9C8.00046 24.9 7.90513 24.8743 7.83179 24.823C7.75846 24.7643 7.69246 24.6836 7.6338 24.581L5.0598 19.851H5.32379V25.538C5.32379 25.7066 5.2798 25.8386 5.1918 25.934C5.11113 26.0293 4.98646 26.077 4.81779 26.077Z" fill="white"/>
</svg>
