<svg width="32" height="32" viewBox="0 0 32 32" fill="none" xmlns="http://www.w3.org/2000/svg">
<path d="M26.3538 10.6462L19.3537 3.64625C19.3073 3.59983 19.2521 3.56303 19.1914 3.53793C19.1307 3.51284 19.0657 3.49995 19 3.5H7C6.60218 3.5 6.22064 3.65804 5.93934 3.93934C5.65804 4.22064 5.5 4.60218 5.5 5V14C5.5 14.1326 5.55268 14.2598 5.64645 14.3536C5.74021 14.4473 5.86739 14.5 6 14.5C6.13261 14.5 6.25979 14.4473 6.35355 14.3536C6.44732 14.2598 6.5 14.1326 6.5 14V5C6.5 4.86739 6.55268 4.74022 6.64645 4.64645C6.74021 4.55268 6.86739 4.5 7 4.5H18.5V11C18.5 11.1326 18.5527 11.2598 18.6464 11.3536C18.7402 11.4473 18.8674 11.5 19 11.5H25.5V14C25.5 14.1326 25.5527 14.2598 25.6464 14.3536C25.7402 14.4473 25.8674 14.5 26 14.5C26.1326 14.5 26.2598 14.4473 26.3536 14.3536C26.4473 14.2598 26.5 14.1326 26.5 14V11C26.5001 10.9343 26.4872 10.8693 26.4621 10.8086C26.437 10.7479 26.4002 10.6927 26.3538 10.6462ZM19.5 10.5V5.20625L24.7925 10.5H19.5Z" fill="white"/>
<path d="M10.1503 4.5L10.1503 6.64286H9.10026C9.00743 6.64286 8.91841 6.68048 8.85277 6.74746C8.78713 6.81444 8.75026 6.90528 8.75026 7C8.75026 7.09472 8.78713 7.18556 8.85277 7.25254C8.91841 7.31952 9.00743 7.35714 9.10026 7.35714H10.1503V9.5H9.10026C9.00743 9.5 8.91841 9.53763 8.85277 9.6046C8.78713 9.67158 8.75026 9.76242 8.75026 9.85714C8.75026 9.95186 8.78713 10.0427 8.85277 10.1097C8.91841 10.1767 9.00743 10.2143 9.10026 10.2143H10.1503V12.3571H9.10026C9.00743 12.3571 8.91841 12.3948 8.85277 12.4617C8.78713 12.5287 8.75026 12.6196 8.75026 12.7143C8.75026 12.809 8.78713 12.8998 8.85277 12.9668C8.91841 13.0338 9.00743 13.0714 9.10026 13.0714H10.1503L10.1503 14.1429C10.1503 14.2376 10.1871 14.3284 10.2528 14.3954C10.3184 14.4624 10.4074 14.5 10.5003 14.5C10.5931 14.5 10.6821 14.4624 10.7477 14.3954C10.8134 14.3284 10.8503 14.2376 10.8503 14.1429V13.0714H11.9003C11.9931 13.0714 12.0821 13.0338 12.1477 12.9668C12.2134 12.8998 12.2503 12.809 12.2503 12.7143C12.2503 12.6196 12.2134 12.5287 12.1477 12.4617C12.0821 12.3948 11.9931 12.3571 11.9003 12.3571H10.8503L10.8503 10.2143H11.9003C11.9931 10.2143 12.0821 10.1767 12.1477 10.1097C12.2134 10.0427 12.2503 9.95186 12.2503 9.85714C12.2503 9.76242 12.2134 9.67158 12.1477 9.6046C12.0821 9.53763 11.9931 9.5 11.9003 9.5H10.8503V7.35714H11.9003C11.9931 7.35714 12.0821 7.31952 12.1477 7.25254C12.2134 7.18556 12.2503 7.09472 12.2503 7C12.2503 6.90528 12.2134 6.81444 12.1477 6.74746C12.0821 6.68048 11.9931 6.64286 11.9003 6.64286H10.8503L10.8503 4.5L10.1503 4.5Z" fill="white"/>
<path d="M19.1932 26.0771C19.0099 26.0771 18.8669 26.0258 18.7642 25.9231C18.6689 25.8205 18.6212 25.6775 18.6212 25.4941V18.8281C18.6212 18.6375 18.6725 18.4945 18.7752 18.3991C18.8779 18.2965 19.0209 18.2451 19.2042 18.2451H21.8332C22.6692 18.2451 23.3145 18.4541 23.7692 18.8721C24.2239 19.2828 24.4512 19.8621 24.4512 20.6101C24.4512 21.3655 24.2239 21.9521 23.7692 22.3701C23.3145 22.7808 22.6692 22.9861 21.8332 22.9861H19.7652V25.4941C19.7652 25.6775 19.7175 25.8205 19.6222 25.9231C19.5269 26.0258 19.3839 26.0771 19.1932 26.0771ZM19.7652 22.0731H21.6682C22.2182 22.0731 22.6325 21.9521 22.9112 21.7101C23.1972 21.4608 23.3402 21.0941 23.3402 20.6101C23.3402 20.1335 23.1972 19.7741 22.9112 19.5321C22.6325 19.2828 22.2182 19.1581 21.6682 19.1581H19.7652V22.0731Z" fill="white"/>
<path d="M15.2499 26.077C15.0665 26.077 14.9235 26.0256 14.8209 25.923C14.7255 25.8203 14.6779 25.6773 14.6779 25.494V18.751C14.6779 18.5603 14.7255 18.4173 14.8209 18.322C14.9235 18.2193 15.0665 18.168 15.2499 18.168C15.4332 18.168 15.5725 18.2193 15.6679 18.322C15.7705 18.4173 15.8219 18.5603 15.8219 18.751V25.494C15.8219 25.6773 15.7742 25.8203 15.6789 25.923C15.5835 26.0256 15.4405 26.077 15.2499 26.077Z" fill="white"/>
<path d="M7.26815 26.0001C7.12148 26.0001 7.00048 25.9708 6.90515 25.9121C6.81715 25.8535 6.75481 25.7728 6.71815 25.6701C6.68881 25.5601 6.68881 25.4428 6.71815 25.3181C6.75481 25.1861 6.82448 25.0505 6.92715 24.9111L11.3271 18.8171V19.2021H7.18015C7.01148 19.2021 6.88315 19.1618 6.79515 19.0811C6.70715 18.9931 6.66315 18.8721 6.66315 18.7181C6.66315 18.5641 6.70715 18.4468 6.79515 18.3661C6.88315 18.2855 7.01148 18.2451 7.18015 18.2451H11.8551C12.0018 18.2451 12.1228 18.2745 12.2181 18.3331C12.3135 18.3918 12.3758 18.4725 12.4051 18.5751C12.4418 18.6778 12.4418 18.7951 12.4051 18.9271C12.3758 19.0591 12.3098 19.1948 12.2071 19.3341L7.79615 25.4281V25.0431H12.1081C12.2768 25.0431 12.4051 25.0835 12.4931 25.1641C12.5811 25.2448 12.6251 25.3621 12.6251 25.5161C12.6251 25.6701 12.5811 25.7911 12.4931 25.8791C12.4051 25.9598 12.2768 26.0001 12.1081 26.0001H7.26815Z" fill="white"/>
</svg>
