<svg width="32" height="32" viewBox="0 0 32 32" fill="none" xmlns="http://www.w3.org/2000/svg">
<path d="M26.5 11V14C26.5 14.1326 26.4473 14.2598 26.3536 14.3536C26.2598 14.4473 26.1326 14.5 26 14.5C25.8674 14.5 25.7402 14.4473 25.6464 14.3536C25.5527 14.2598 25.5 14.1326 25.5 14V11.5H19C18.8674 11.5 18.7402 11.4473 18.6464 11.3536C18.5527 11.2598 18.5 11.1326 18.5 11V4.5H7C6.86739 4.5 6.74021 4.55268 6.64645 4.64645C6.55268 4.74022 6.5 4.86739 6.5 5V14C6.5 14.1326 6.44732 14.2598 6.35355 14.3536C6.25979 14.4473 6.13261 14.5 6 14.5C5.86739 14.5 5.74021 14.4473 5.64645 14.3536C5.55268 14.2598 5.5 14.1326 5.5 14V5C5.5 4.60218 5.65804 4.22064 5.93934 3.93934C6.22064 3.65804 6.60218 3.5 7 3.5H19C19.0657 3.49995 19.1307 3.51284 19.1914 3.53793C19.2521 3.56303 19.3073 3.59983 19.3538 3.64625L26.3538 10.6462C26.4002 10.6927 26.437 10.7479 26.4621 10.8086C26.4872 10.8693 26.5001 10.9343 26.5 11ZM24.7925 10.5L19.5 5.20625V10.5H24.7925Z" fill="white"/>
<path d="M24.2106 26.0002C24.0272 26.0002 23.8842 25.9488 23.7816 25.8462C23.6789 25.7435 23.6276 25.6005 23.6276 25.4172V18.7842C23.6276 18.5935 23.6752 18.4505 23.7706 18.3552C23.8732 18.2525 24.0162 18.2012 24.1996 18.2012C24.3829 18.2012 24.5222 18.2525 24.6176 18.3552C24.7202 18.4505 24.7716 18.5935 24.7716 18.7842V25.0212H28.1816C28.3429 25.0212 28.4676 25.0652 28.5556 25.1532C28.6436 25.2338 28.6876 25.3512 28.6876 25.5052C28.6876 25.6592 28.6436 25.7802 28.5556 25.8682C28.4676 25.9562 28.3429 26.0002 28.1816 26.0002H24.2106Z" fill="white"/>
<path d="M13.703 26.077C13.5344 26.077 13.4024 26.0293 13.307 25.934C13.219 25.8386 13.175 25.7066 13.175 25.538V18.707C13.175 18.531 13.2227 18.399 13.318 18.311C13.4134 18.2156 13.5417 18.168 13.703 18.168C13.857 18.168 13.9744 18.1973 14.055 18.256C14.143 18.3073 14.2237 18.4026 14.297 18.542L17.179 23.921H16.838L19.709 18.542C19.7824 18.4026 19.8594 18.3073 19.9401 18.256C20.0207 18.1973 20.138 18.168 20.292 18.168C20.4534 18.168 20.578 18.2156 20.666 18.311C20.754 18.399 20.798 18.531 20.798 18.707V25.538C20.798 25.7066 20.754 25.8386 20.666 25.934C20.5854 26.0293 20.4607 26.077 20.292 26.077C20.1234 26.077 19.995 26.0293 19.907 25.934C19.819 25.8386 19.775 25.7066 19.775 25.538V19.862H20.017L17.465 24.581C17.4064 24.691 17.344 24.7716 17.278 24.823C17.212 24.8743 17.1204 24.9 17.003 24.9C16.8857 24.9 16.7904 24.8743 16.717 24.823C16.6437 24.7643 16.5777 24.6836 16.519 24.581L13.945 19.851H14.209V25.538C14.209 25.7066 14.165 25.8386 14.077 25.934C13.9964 26.0293 13.8717 26.077 13.703 26.077Z" fill="white"/>
<path d="M7.73702 26.099C6.89368 26.099 6.18235 25.9413 5.60302 25.626C5.02368 25.3033 4.58368 24.845 4.28302 24.251C3.98968 23.657 3.84302 22.9493 3.84302 22.128C3.84302 21.512 3.92735 20.962 4.09602 20.478C4.27202 19.9867 4.52135 19.5687 4.84402 19.224C5.17402 18.872 5.57368 18.6043 6.04302 18.421C6.51968 18.2377 7.05868 18.146 7.66002 18.146C8.10002 18.146 8.53268 18.2047 8.95802 18.322C9.38335 18.432 9.77202 18.6153 10.124 18.872C10.2267 18.9453 10.2927 19.0297 10.322 19.125C10.3514 19.2203 10.3514 19.3193 10.322 19.422C10.3 19.5173 10.2524 19.6017 10.179 19.675C10.113 19.7483 10.0287 19.7923 9.92602 19.807C9.83068 19.8217 9.72435 19.7923 9.60702 19.719C9.32102 19.521 9.02035 19.378 8.70502 19.29C8.38968 19.1947 8.04135 19.147 7.66002 19.147C7.08802 19.147 6.60402 19.2643 6.20802 19.499C5.81935 19.7337 5.52602 20.0747 5.32802 20.522C5.13002 20.962 5.03102 21.4973 5.03102 22.128C5.03102 23.1033 5.26202 23.844 5.72402 24.35C6.18602 24.856 6.87168 25.109 7.78102 25.109C8.11102 25.109 8.43368 25.0797 8.74902 25.021C9.07168 24.955 9.37968 24.8633 9.67302 24.746L9.44202 25.318V22.755H8.02302C7.87635 22.755 7.75902 22.7183 7.67102 22.645C7.59035 22.5643 7.55002 22.4543 7.55002 22.315C7.55002 22.1757 7.59035 22.073 7.67102 22.007C7.75902 21.9337 7.87635 21.897 8.02302 21.897H9.92602C10.08 21.897 10.1974 21.9373 10.278 22.018C10.3587 22.0987 10.399 22.216 10.399 22.37V25.142C10.399 25.274 10.3734 25.3877 10.322 25.483C10.278 25.571 10.201 25.637 10.091 25.681C9.77568 25.8057 9.40535 25.9083 8.98002 25.989C8.55468 26.0623 8.14035 26.099 7.73702 26.099Z" fill="white"/>
</svg>
