<svg width="32" height="32" viewBox="0 0 32 32" fill="none" xmlns="http://www.w3.org/2000/svg">
<path d="M26.5 11V14C26.5 14.1326 26.4473 14.2598 26.3536 14.3536C26.2598 14.4473 26.1326 14.5 26 14.5C25.8674 14.5 25.7402 14.4473 25.6464 14.3536C25.5527 14.2598 25.5 14.1326 25.5 14V11.5H19C18.8674 11.5 18.7402 11.4473 18.6464 11.3536C18.5527 11.2598 18.5 11.1326 18.5 11V4.5H7C6.86739 4.5 6.74021 4.55268 6.64645 4.64645C6.55268 4.74022 6.5 4.86739 6.5 5V14C6.5 14.1326 6.44732 14.2598 6.35355 14.3536C6.25979 14.4473 6.13261 14.5 6 14.5C5.86739 14.5 5.74021 14.4473 5.64645 14.3536C5.55268 14.2598 5.5 14.1326 5.5 14V5C5.5 4.60218 5.65804 4.22064 5.93934 3.93934C6.22064 3.65804 6.60218 3.5 7 3.5H19C19.0657 3.49995 19.1307 3.51284 19.1914 3.53793C19.2521 3.56303 19.3073 3.59983 19.3538 3.64625L26.3538 10.6462C26.4002 10.6927 26.437 10.7479 26.4621 10.8086C26.4872 10.8693 26.5001 10.9343 26.5 11ZM24.7925 10.5L19.5 5.20625V10.5H24.7925Z" fill="white"/>
<path d="M23.898 26.077C23.7293 26.077 23.5973 26.0293 23.502 25.934C23.4067 25.8386 23.359 25.703 23.359 25.527V18.74C23.359 18.5566 23.403 18.4173 23.491 18.322C23.5863 18.2193 23.711 18.168 23.865 18.168C23.997 18.168 24.096 18.1936 24.162 18.245C24.2353 18.289 24.3197 18.3733 24.415 18.498L28.947 24.471H28.672V18.707C28.672 18.5383 28.716 18.4063 28.804 18.311C28.8993 18.2156 29.0313 18.168 29.2 18.168C29.376 18.168 29.508 18.2156 29.596 18.311C29.684 18.4063 29.728 18.5383 29.728 18.707V25.538C29.728 25.7066 29.684 25.8386 29.596 25.934C29.5153 26.0293 29.4053 26.077 29.266 26.077C29.134 26.077 29.024 26.0513 28.936 26C28.8553 25.9486 28.7673 25.8606 28.672 25.736L24.162 19.774H24.415V25.527C24.415 25.703 24.371 25.8386 24.283 25.934C24.195 26.0293 24.0667 26.077 23.898 26.077Z" fill="white"/>
<path d="M17.1957 26.099C16.4623 26.099 15.8207 25.9377 15.2707 25.615C14.728 25.285 14.3063 24.823 14.0057 24.229C13.7123 23.6277 13.5657 22.9237 13.5657 22.117C13.5657 21.5083 13.65 20.962 13.8187 20.478C13.9873 19.9867 14.2293 19.5687 14.5447 19.224C14.86 18.872 15.2413 18.6043 15.6887 18.421C16.136 18.2377 16.6383 18.146 17.1957 18.146C17.9363 18.146 18.578 18.3073 19.1207 18.63C19.6633 18.9527 20.0813 19.411 20.3747 20.005C20.6753 20.599 20.8257 21.2993 20.8257 22.106C20.8257 22.7147 20.7413 23.2647 20.5727 23.756C20.404 24.2473 20.1583 24.669 19.8357 25.021C19.5203 25.373 19.139 25.6407 18.6917 25.824C18.2443 26.0073 17.7457 26.099 17.1957 26.099ZM17.1957 25.109C17.709 25.109 18.1453 24.9917 18.5047 24.757C18.8713 24.5223 19.15 24.1813 19.3407 23.734C19.5387 23.2867 19.6377 22.7477 19.6377 22.117C19.6377 21.171 19.425 20.4377 18.9997 19.917C18.5743 19.3963 17.973 19.136 17.1957 19.136C16.6823 19.136 16.2423 19.2533 15.8757 19.488C15.5163 19.7153 15.2377 20.0527 15.0397 20.5C14.849 20.9473 14.7537 21.4863 14.7537 22.117C14.7537 23.0557 14.9663 23.789 15.3917 24.317C15.8243 24.845 16.4257 25.109 17.1957 25.109Z" fill="white"/>
<path d="M8.57195 26.099C8.23461 26.099 7.90461 26.0733 7.58195 26.022C7.25928 25.9707 6.95495 25.8937 6.66895 25.791C6.38295 25.681 6.12628 25.549 5.89895 25.395C5.78895 25.3143 5.71195 25.2227 5.66795 25.12C5.63128 25.0173 5.62028 24.9183 5.63495 24.823C5.65695 24.7203 5.70095 24.6323 5.76695 24.559C5.83295 24.4857 5.91361 24.4417 6.00895 24.427C6.10428 24.405 6.21061 24.4343 6.32795 24.515C6.65795 24.7277 7.00628 24.8853 7.37295 24.988C7.73961 25.0833 8.13928 25.131 8.57195 25.131C9.19528 25.131 9.65361 25.021 9.94695 24.801C10.2476 24.5737 10.3979 24.2803 10.3979 23.921C10.3979 23.6277 10.2916 23.3967 10.0789 23.228C9.86628 23.052 9.51061 22.9127 9.01195 22.81L7.83495 22.568C7.13828 22.4213 6.61761 22.1793 6.27295 21.842C5.93561 21.5047 5.76695 21.05 5.76695 20.478C5.76695 20.1333 5.83661 19.818 5.97595 19.532C6.12261 19.246 6.32428 19.0003 6.58095 18.795C6.83761 18.5823 7.14561 18.421 7.50495 18.311C7.86428 18.201 8.25661 18.146 8.68195 18.146C9.13661 18.146 9.56195 18.2047 9.95795 18.322C10.3613 18.4393 10.7206 18.619 11.0359 18.861C11.1313 18.927 11.1936 19.0113 11.2229 19.114C11.2596 19.2093 11.2669 19.3047 11.2449 19.4C11.2303 19.4953 11.1899 19.576 11.1239 19.642C11.0579 19.708 10.9736 19.7483 10.8709 19.763C10.7683 19.7703 10.6546 19.7337 10.5299 19.653C10.2439 19.4623 9.95061 19.3267 9.64995 19.246C9.35661 19.158 9.03028 19.114 8.67095 19.114C8.31161 19.114 7.99628 19.169 7.72495 19.279C7.46095 19.389 7.25561 19.543 7.10895 19.741C6.96961 19.939 6.89995 20.1737 6.89995 20.445C6.89995 20.753 6.99895 20.9987 7.19695 21.182C7.39495 21.3653 7.72495 21.5047 8.18695 21.6L9.35295 21.842C10.0863 21.996 10.6326 22.2343 10.9919 22.557C11.3513 22.8797 11.5309 23.3087 11.5309 23.844C11.5309 24.1887 11.4613 24.5003 11.3219 24.779C11.1826 25.0503 10.9846 25.285 10.7279 25.483C10.4713 25.681 10.1596 25.835 9.79295 25.945C9.43361 26.0477 9.02661 26.099 8.57195 26.099Z" fill="white"/>
<path d="M0.764098 26.066C0.595431 26.0733 0.463431 26.0293 0.368098 25.934C0.272764 25.8386 0.225098 25.7176 0.225098 25.571C0.225098 25.461 0.261764 25.362 0.335098 25.274C0.401098 25.186 0.500098 25.1383 0.632098 25.131L0.973098 25.109C1.3251 25.0796 1.59276 24.9623 1.7761 24.757C1.95943 24.5443 2.0511 24.251 2.0511 23.877V18.74C2.0511 18.5493 2.09876 18.4063 2.1941 18.311C2.28943 18.2156 2.42876 18.168 2.6121 18.168C2.79543 18.168 2.93476 18.2156 3.0301 18.311C3.13276 18.4063 3.1841 18.5493 3.1841 18.74V23.877C3.1841 24.317 3.10343 24.6946 2.9421 25.01C2.7881 25.318 2.56076 25.56 2.2601 25.736C1.95943 25.912 1.58543 26.0146 1.1381 26.044L0.764098 26.066Z" fill="white"/>
</svg>
