<svg width="32" height="32" viewBox="0 0 32 32" fill="none" xmlns="http://www.w3.org/2000/svg">
<path d="M26.5 11V14C26.5 14.1326 26.4473 14.2598 26.3536 14.3536C26.2598 14.4473 26.1326 14.5 26 14.5C25.8674 14.5 25.7402 14.4473 25.6464 14.3536C25.5527 14.2598 25.5 14.1326 25.5 14V11.5H19C18.8674 11.5 18.7402 11.4473 18.6464 11.3536C18.5527 11.2598 18.5 11.1326 18.5 11V4.5H7C6.86739 4.5 6.74021 4.55268 6.64645 4.64645C6.55268 4.74022 6.5 4.86739 6.5 5V14C6.5 14.1326 6.44732 14.2598 6.35355 14.3536C6.25979 14.4473 6.13261 14.5 6 14.5C5.86739 14.5 5.74021 14.4473 5.64645 14.3536C5.55268 14.2598 5.5 14.1326 5.5 14V5C5.5 4.60218 5.65804 4.22064 5.93934 3.93934C6.22064 3.65804 6.60218 3.5 7 3.5H19C19.0657 3.49995 19.1307 3.51284 19.1914 3.53793C19.2521 3.56303 19.3073 3.59983 19.3538 3.64625L26.3538 10.6462C26.4002 10.6927 26.437 10.7479 26.4621 10.8086C26.4872 10.8693 26.5001 10.9343 26.5 11ZM24.7925 10.5L19.5 5.20625V10.5H24.7925Z" fill="white"/>
<path d="M23.0839 26.077C22.9226 26.077 22.7869 26.0403 22.6769 25.967C22.5743 25.8863 22.4899 25.769 22.4239 25.615L19.4649 18.916C19.4062 18.762 19.3916 18.63 19.4209 18.52C19.4503 18.41 19.5089 18.3256 19.5969 18.267C19.6922 18.201 19.8059 18.168 19.9379 18.168C20.1066 18.168 20.2349 18.2046 20.3229 18.278C20.4109 18.3513 20.4842 18.4613 20.5429 18.608L23.3149 25.032H22.9079L25.6579 18.597C25.7239 18.4576 25.8009 18.3513 25.8889 18.278C25.9843 18.2046 26.1126 18.168 26.2739 18.168C26.4059 18.168 26.5123 18.201 26.5929 18.267C26.6809 18.3256 26.7359 18.41 26.7579 18.52C26.7799 18.63 26.7579 18.762 26.6919 18.916L23.7439 25.615C23.6779 25.769 23.5936 25.8863 23.4909 25.967C23.3882 26.0403 23.2526 26.077 23.0839 26.077Z" fill="white"/>
<path d="M15.007 26.099C14.6697 26.099 14.3397 26.0733 14.017 26.022C13.6943 25.9707 13.39 25.8937 13.104 25.791C12.818 25.681 12.5613 25.549 12.334 25.395C12.224 25.3143 12.147 25.2227 12.103 25.12C12.0663 25.0173 12.0553 24.9183 12.07 24.823C12.092 24.7203 12.136 24.6323 12.202 24.559C12.268 24.4857 12.3487 24.4417 12.444 24.427C12.5393 24.405 12.6457 24.4343 12.763 24.515C13.093 24.7277 13.4413 24.8853 13.808 24.988C14.1747 25.0833 14.5743 25.131 15.007 25.131C15.6303 25.131 16.0887 25.021 16.382 24.801C16.6827 24.5737 16.833 24.2803 16.833 23.921C16.833 23.6277 16.7267 23.3967 16.514 23.228C16.3013 23.052 15.9457 22.9127 15.447 22.81L14.27 22.568C13.5733 22.4213 13.0527 22.1793 12.708 21.842C12.3707 21.5047 12.202 21.05 12.202 20.478C12.202 20.1333 12.2717 19.818 12.411 19.532C12.5577 19.246 12.7593 19.0003 13.016 18.795C13.2727 18.5823 13.5807 18.421 13.94 18.311C14.2993 18.201 14.6917 18.146 15.117 18.146C15.5717 18.146 15.997 18.2047 16.393 18.322C16.7963 18.4393 17.1557 18.619 17.471 18.861C17.5663 18.927 17.6287 19.0113 17.658 19.114C17.6947 19.2093 17.702 19.3047 17.68 19.4C17.6653 19.4953 17.625 19.576 17.559 19.642C17.493 19.708 17.4087 19.7483 17.306 19.763C17.2033 19.7703 17.0897 19.7337 16.965 19.653C16.679 19.4623 16.3857 19.3267 16.085 19.246C15.7917 19.158 15.4653 19.114 15.106 19.114C14.7467 19.114 14.4313 19.169 14.16 19.279C13.896 19.389 13.6907 19.543 13.544 19.741C13.4047 19.939 13.335 20.1737 13.335 20.445C13.335 20.753 13.434 20.9987 13.632 21.182C13.83 21.3653 14.16 21.5047 14.622 21.6L15.788 21.842C16.5213 21.996 17.0677 22.2343 17.427 22.557C17.7863 22.8797 17.966 23.3087 17.966 23.844C17.966 24.1887 17.8963 24.5003 17.757 24.779C17.6177 25.0503 17.4197 25.285 17.163 25.483C16.9063 25.681 16.5947 25.835 16.228 25.945C15.8687 26.0477 15.4617 26.099 15.007 26.099Z" fill="white"/>
<path d="M7.43001 26.0771C7.24667 26.0771 7.10367 26.0258 7.00101 25.9231C6.90567 25.8205 6.85801 25.6775 6.85801 25.4941V19.2021H4.52601C4.37201 19.2021 4.25101 19.1618 4.16301 19.0811C4.07501 18.9931 4.03101 18.8721 4.03101 18.7181C4.03101 18.5641 4.07501 18.4468 4.16301 18.3661C4.25101 18.2855 4.37201 18.2451 4.52601 18.2451H10.323C10.4843 18.2451 10.609 18.2855 10.697 18.3661C10.785 18.4468 10.829 18.5641 10.829 18.7181C10.829 18.8721 10.785 18.9931 10.697 19.0811C10.609 19.1618 10.4843 19.2021 10.323 19.2021H7.99101V25.4941C7.99101 25.6775 7.94334 25.8205 7.84801 25.9231C7.76001 26.0258 7.62067 26.0771 7.43001 26.0771Z" fill="white"/>
</svg>
