<svg width="32" height="32" viewBox="0 0 32 32" fill="none" xmlns="http://www.w3.org/2000/svg">
<path d="M26.5 11V14C26.5 14.1326 26.4473 14.2598 26.3536 14.3536C26.2598 14.4473 26.1326 14.5 26 14.5C25.8674 14.5 25.7402 14.4473 25.6464 14.3536C25.5527 14.2598 25.5 14.1326 25.5 14V11.5H19C18.8674 11.5 18.7402 11.4473 18.6464 11.3536C18.5527 11.2598 18.5 11.1326 18.5 11V4.5H7C6.86739 4.5 6.74021 4.55268 6.64645 4.64645C6.55268 4.74022 6.5 4.86739 6.5 5V14C6.5 14.1326 6.44732 14.2598 6.35355 14.3536C6.25979 14.4473 6.13261 14.5 6 14.5C5.86739 14.5 5.74021 14.4473 5.64645 14.3536C5.55268 14.2598 5.5 14.1326 5.5 14V5C5.5 4.60218 5.65804 4.22064 5.93934 3.93934C6.22064 3.65804 6.60218 3.5 7 3.5H19C19.0657 3.49995 19.1307 3.51284 19.1914 3.53793C19.2521 3.56303 19.3073 3.59983 19.3538 3.64625L26.3538 10.6462C26.4002 10.6927 26.437 10.7479 26.4621 10.8086C26.4872 10.8693 26.5001 10.9343 26.5 11ZM24.7925 10.5L19.5 5.20625V10.5H24.7925Z" fill="white"/>
<path d="M20.8266 26.0001C20.6286 26.0001 20.4746 25.9488 20.3646 25.8461C20.2619 25.7361 20.2106 25.5821 20.2106 25.3841V18.8611C20.2106 18.6631 20.2619 18.5128 20.3646 18.4101C20.4746 18.3001 20.6286 18.2451 20.8266 18.2451H23.4446C23.9799 18.2451 24.4346 18.3258 24.8086 18.4871C25.1899 18.6485 25.4796 18.8795 25.6776 19.1801C25.8829 19.4808 25.9856 19.8438 25.9856 20.2691C25.9856 20.7385 25.8462 21.1345 25.5676 21.4571C25.2889 21.7798 24.9112 21.9961 24.4346 22.1061V21.9411C24.9772 22.0145 25.4026 22.2198 25.7106 22.5571C26.0186 22.8871 26.1726 23.3198 26.1726 23.8551C26.1726 24.5445 25.9452 25.0761 25.4906 25.4501C25.0359 25.8168 24.3979 26.0001 23.5766 26.0001H20.8266ZM21.3106 25.1201H23.4446C23.9946 25.1201 24.4016 25.0138 24.6656 24.8011C24.9296 24.5811 25.0616 24.2511 25.0616 23.8111C25.0616 23.3711 24.9296 23.0448 24.6656 22.8321C24.4016 22.6195 23.9946 22.5131 23.4446 22.5131H21.3106V25.1201ZM21.3106 21.6331H23.2686C23.7966 21.6331 24.1962 21.5268 24.4676 21.3141C24.7389 21.1015 24.8746 20.7898 24.8746 20.3791C24.8746 19.9685 24.7389 19.6568 24.4676 19.4441C24.1962 19.2315 23.7966 19.1251 23.2686 19.1251H21.3106V21.6331Z" fill="white"/>
<path d="M13.7242 26.0002C13.5409 26.0002 13.3979 25.9488 13.2952 25.8462C13.1926 25.7435 13.1412 25.6005 13.1412 25.4172V18.7842C13.1412 18.5935 13.1889 18.4505 13.2842 18.3552C13.3869 18.2525 13.5299 18.2012 13.7132 18.2012C13.8966 18.2012 14.0359 18.2525 14.1312 18.3552C14.2339 18.4505 14.2852 18.5935 14.2852 18.7842V25.0212H17.6952C17.8566 25.0212 17.9812 25.0652 18.0692 25.1532C18.1572 25.2338 18.2012 25.3512 18.2012 25.5052C18.2012 25.6592 18.1572 25.7802 18.0692 25.8682C17.9812 25.9562 17.8566 26.0002 17.6952 26.0002H13.7242Z" fill="white"/>
<path d="M7.7253 26.099C6.88197 26.099 6.17063 25.9413 5.5913 25.626C5.01197 25.3033 4.57197 24.845 4.2713 24.251C3.97797 23.657 3.8313 22.9493 3.8313 22.128C3.8313 21.512 3.91563 20.962 4.0843 20.478C4.2603 19.9867 4.50963 19.5687 4.8323 19.224C5.1623 18.872 5.56197 18.6043 6.0313 18.421C6.50797 18.2377 7.04697 18.146 7.6483 18.146C8.0883 18.146 8.52097 18.2047 8.9463 18.322C9.37163 18.432 9.7603 18.6153 10.1123 18.872C10.215 18.9453 10.281 19.0297 10.3103 19.125C10.3396 19.2203 10.3396 19.3193 10.3103 19.422C10.2883 19.5173 10.2406 19.6017 10.1673 19.675C10.1013 19.7483 10.017 19.7923 9.9143 19.807C9.81897 19.8217 9.71263 19.7923 9.5953 19.719C9.3093 19.521 9.00863 19.378 8.6933 19.29C8.37797 19.1947 8.02963 19.147 7.6483 19.147C7.0763 19.147 6.5923 19.2643 6.1963 19.499C5.80763 19.7337 5.5143 20.0747 5.3163 20.522C5.1183 20.962 5.0193 21.4973 5.0193 22.128C5.0193 23.1033 5.2503 23.844 5.7123 24.35C6.1743 24.856 6.85997 25.109 7.7693 25.109C8.0993 25.109 8.42197 25.0797 8.7373 25.021C9.05997 24.955 9.36797 24.8633 9.6613 24.746L9.4303 25.318V22.755H8.0113C7.86463 22.755 7.7473 22.7183 7.6593 22.645C7.57863 22.5643 7.5383 22.4543 7.5383 22.315C7.5383 22.1757 7.57863 22.073 7.6593 22.007C7.7473 21.9337 7.86463 21.897 8.0113 21.897H9.9143C10.0683 21.897 10.1856 21.9373 10.2663 22.018C10.347 22.0987 10.3873 22.216 10.3873 22.37V25.142C10.3873 25.274 10.3616 25.3877 10.3103 25.483C10.2663 25.571 10.1893 25.637 10.0793 25.681C9.76397 25.8057 9.39363 25.9083 8.9683 25.989C8.54297 26.0623 8.12863 26.099 7.7253 26.099Z" fill="white"/>
</svg>
