<svg width="32" height="32" viewBox="0 0 32 32" fill="none" xmlns="http://www.w3.org/2000/svg">
<path d="M26.5 11V14C26.5 14.1326 26.4473 14.2598 26.3536 14.3536C26.2598 14.4473 26.1326 14.5 26 14.5C25.8674 14.5 25.7402 14.4473 25.6464 14.3536C25.5527 14.2598 25.5 14.1326 25.5 14V11.5H19C18.8674 11.5 18.7402 11.4473 18.6464 11.3536C18.5527 11.2598 18.5 11.1326 18.5 11V4.5H7C6.86739 4.5 6.74021 4.55268 6.64645 4.64645C6.55268 4.74022 6.5 4.86739 6.5 5V14C6.5 14.1326 6.44732 14.2598 6.35355 14.3536C6.25979 14.4473 6.13261 14.5 6 14.5C5.86739 14.5 5.74021 14.4473 5.64645 14.3536C5.55268 14.2598 5.5 14.1326 5.5 14V5C5.5 4.60218 5.65804 4.22064 5.93934 3.93934C6.22064 3.65804 6.60218 3.5 7 3.5H19C19.0657 3.49995 19.1307 3.51284 19.1914 3.53793C19.2521 3.56303 19.3073 3.59983 19.3538 3.64625L26.3538 10.6462C26.4002 10.6927 26.437 10.7479 26.4621 10.8086C26.4872 10.8693 26.5001 10.9343 26.5 11ZM24.7925 10.5L19.5 5.20625V10.5H24.7925Z" fill="currentColor"/>
<path d="M19.5049 26.077C19.3216 26.077 19.1786 26.0256 19.0759 25.923C18.9806 25.8203 18.9329 25.6736 18.9329 25.483V21.996L19.1859 22.722L16.4689 18.949C16.3882 18.839 16.3516 18.7253 16.3589 18.608C16.3662 18.4833 16.4139 18.3806 16.5019 18.3C16.5972 18.212 16.7219 18.168 16.8759 18.168C16.9932 18.168 17.0996 18.1973 17.1949 18.256C17.2976 18.3146 17.3929 18.4063 17.4809 18.531L19.6589 21.556H19.3949L21.5729 18.531C21.6682 18.399 21.7599 18.3073 21.8479 18.256C21.9359 18.1973 22.0459 18.168 22.1779 18.168C22.3319 18.168 22.4492 18.2083 22.5299 18.289C22.6179 18.3623 22.6619 18.4613 22.6619 18.586C22.6692 18.7033 22.6252 18.828 22.5299 18.96L19.8349 22.722L20.0659 21.996V25.483C20.0659 25.879 19.8789 26.077 19.5049 26.077Z" fill="currentColor"/>
<path d="M9.6312 26.0771C9.44787 26.0771 9.30487 26.0258 9.2022 25.9231C9.10687 25.8205 9.0592 25.6775 9.0592 25.4941V18.8281C9.0592 18.6375 9.11054 18.4945 9.2132 18.3991C9.31587 18.2965 9.45887 18.2451 9.6422 18.2451H12.2712C13.1072 18.2451 13.7525 18.4541 14.2072 18.8721C14.6619 19.2828 14.8892 19.8621 14.8892 20.6101C14.8892 21.3655 14.6619 21.9521 14.2072 22.3701C13.7525 22.7808 13.1072 22.9861 12.2712 22.9861H10.2032V25.4941C10.2032 25.6775 10.1555 25.8205 10.0602 25.9231C9.96487 26.0258 9.82187 26.0771 9.6312 26.0771ZM10.2032 22.0731H12.1062C12.6562 22.0731 13.0705 21.9521 13.3492 21.7101C13.6352 21.4608 13.7782 21.0941 13.7782 20.6101C13.7782 20.1335 13.6352 19.7741 13.3492 19.5321C13.0705 19.2828 12.6562 19.1581 12.1062 19.1581H10.2032V22.0731Z" fill="currentColor"/>
</svg>
