<svg width="33" height="32" viewBox="0 0 33 32" fill="none" xmlns="http://www.w3.org/2000/svg">
<path d="M26.5896 11V14C26.5896 14.1326 26.5369 14.2598 26.4432 14.3536C26.3494 14.4473 26.2222 14.5 26.0896 14.5C25.957 14.5 25.8298 14.4473 25.736 14.3536C25.6423 14.2598 25.5896 14.1326 25.5896 14V11.5H19.0896C18.957 11.5 18.8298 11.4473 18.736 11.3536C18.6423 11.2598 18.5896 11.1326 18.5896 11V4.5H7.0896C6.95699 4.5 6.82981 4.55268 6.73605 4.64645C6.64228 4.74022 6.5896 4.86739 6.5896 5V14C6.5896 14.1326 6.53692 14.2598 6.44315 14.3536C6.34938 14.4473 6.22221 14.5 6.0896 14.5C5.95699 14.5 5.82981 14.4473 5.73605 14.3536C5.64228 14.2598 5.5896 14.1326 5.5896 14V5C5.5896 4.60218 5.74763 4.22064 6.02894 3.93934C6.31024 3.65804 6.69177 3.5 7.0896 3.5H19.0896C19.1553 3.49995 19.2203 3.51284 19.281 3.53793C19.3417 3.56303 19.3969 3.59983 19.4433 3.64625L26.4433 10.6462C26.4898 10.6927 26.5266 10.7479 26.5517 10.8086C26.5768 10.8693 26.5897 10.9343 26.5896 11ZM24.8821 10.5L19.5896 5.20625V10.5H24.8821Z" fill="currentColor"/>
<path d="M27.2328 26.0002C27.0494 26.0002 26.9064 25.9488 26.8038 25.8462C26.7011 25.7435 26.6498 25.6005 26.6498 25.4172V18.7842C26.6498 18.5935 26.6974 18.4505 26.7928 18.3552C26.8954 18.2525 27.0384 18.2012 27.2218 18.2012C27.4051 18.2012 27.5444 18.2525 27.6398 18.3552C27.7424 18.4505 27.7938 18.5935 27.7938 18.7842V25.0212H31.2038C31.3651 25.0212 31.4898 25.0652 31.5778 25.1532C31.6658 25.2338 31.7098 25.3512 31.7098 25.5052C31.7098 25.6592 31.6658 25.7802 31.5778 25.8682C31.4898 25.9562 31.3651 26.0002 31.2038 26.0002H27.2328Z" fill="currentColor"/>
<path d="M16.7251 26.077C16.5565 26.077 16.4245 26.0293 16.3291 25.934C16.2411 25.8386 16.1971 25.7066 16.1971 25.538V18.707C16.1971 18.531 16.2448 18.399 16.3401 18.311C16.4355 18.2156 16.5638 18.168 16.7251 18.168C16.8791 18.168 16.9965 18.1973 17.0771 18.256C17.1651 18.3073 17.2458 18.4026 17.3191 18.542L20.2011 23.921H19.8601L22.7311 18.542C22.8045 18.4026 22.8815 18.3073 22.9621 18.256C23.0428 18.1973 23.1601 18.168 23.3141 18.168C23.4755 18.168 23.6001 18.2156 23.6881 18.311C23.7761 18.399 23.8201 18.531 23.8201 18.707V25.538C23.8201 25.7066 23.7761 25.8386 23.6881 25.934C23.6075 26.0293 23.4828 26.077 23.3141 26.077C23.1455 26.077 23.0171 26.0293 22.9291 25.934C22.8411 25.8386 22.7971 25.7066 22.7971 25.538V19.862H23.0391L20.4871 24.581C20.4285 24.691 20.3661 24.7716 20.3001 24.823C20.2341 24.8743 20.1425 24.9 20.0251 24.9C19.9078 24.9 19.8125 24.8743 19.7391 24.823C19.6658 24.7643 19.5998 24.6836 19.5411 24.581L16.9671 19.851H17.2311V25.538C17.2311 25.7066 17.1871 25.8386 17.0991 25.934C17.0185 26.0293 16.8938 26.077 16.7251 26.077Z" fill="currentColor"/>
<path d="M8.7654 26.0001C8.61873 26.0001 8.49773 25.9708 8.4024 25.9121C8.3144 25.8535 8.25207 25.7728 8.2154 25.6701C8.18607 25.5601 8.18607 25.4428 8.2154 25.3181C8.25207 25.1861 8.32173 25.0505 8.4244 24.9111L12.8244 18.8171V19.2021H8.6774C8.50873 19.2021 8.3804 19.1618 8.2924 19.0811C8.2044 18.9931 8.1604 18.8721 8.1604 18.7181C8.1604 18.5641 8.2044 18.4468 8.2924 18.3661C8.3804 18.2855 8.50873 18.2451 8.6774 18.2451H13.3524C13.4991 18.2451 13.6201 18.2745 13.7154 18.3331C13.8107 18.3918 13.8731 18.4725 13.9024 18.5751C13.9391 18.6778 13.9391 18.7951 13.9024 18.9271C13.8731 19.0591 13.8071 19.1948 13.7044 19.3341L9.2934 25.4281V25.0431H13.6054C13.7741 25.0431 13.9024 25.0835 13.9904 25.1641C14.0784 25.2448 14.1224 25.3621 14.1224 25.5161C14.1224 25.6701 14.0784 25.7911 13.9904 25.8791C13.9024 25.9598 13.7741 26.0001 13.6054 26.0001H8.7654Z" fill="currentColor"/>
<path d="M3.74 26.099C2.95533 26.099 2.28433 25.9377 1.727 25.615C1.16967 25.2923 0.740667 24.834 0.44 24.24C0.146667 23.6387 0 22.931 0 22.117C0 21.5083 0.0843334 20.962 0.253 20.478C0.421667 19.9867 0.663667 19.5687 0.979 19.224C1.30167 18.872 1.694 18.6043 2.156 18.421C2.62533 18.2377 3.15333 18.146 3.74 18.146C4.17267 18.146 4.587 18.2047 4.983 18.322C5.38633 18.4393 5.73467 18.608 6.028 18.828C6.15267 18.9087 6.23333 19.0077 6.27 19.125C6.314 19.235 6.32133 19.3413 6.292 19.444C6.27 19.5467 6.22233 19.6347 6.149 19.708C6.07567 19.774 5.98033 19.8107 5.863 19.818C5.753 19.8253 5.632 19.785 5.5 19.697C5.258 19.5137 4.99033 19.378 4.697 19.29C4.40367 19.202 4.09567 19.158 3.773 19.158C3.21567 19.158 2.74633 19.2753 2.365 19.51C1.98367 19.7373 1.694 20.071 1.496 20.511C1.298 20.951 1.199 21.4863 1.199 22.117C1.199 22.7477 1.298 23.2867 1.496 23.734C1.694 24.174 1.98367 24.5113 2.365 24.746C2.74633 24.9733 3.21567 25.087 3.773 25.087C4.09567 25.087 4.40367 25.043 4.697 24.955C4.99767 24.8597 5.28 24.7203 5.544 24.537C5.676 24.4563 5.79333 24.4197 5.896 24.427C6.006 24.4343 6.09767 24.471 6.171 24.537C6.24433 24.603 6.292 24.6873 6.314 24.79C6.34333 24.8853 6.33967 24.988 6.303 25.098C6.27367 25.2007 6.204 25.2887 6.094 25.362C5.79333 25.604 5.43767 25.7873 5.027 25.912C4.61633 26.0367 4.18733 26.099 3.74 26.099Z" fill="currentColor"/>
</svg>
