<svg width="33" height="32" viewBox="0 0 33 32" fill="none" xmlns="http://www.w3.org/2000/svg">
<path d="M26.5 11V14C26.5 14.1326 26.4473 14.2598 26.3536 14.3536C26.2598 14.4473 26.1326 14.5 26 14.5C25.8674 14.5 25.7402 14.4473 25.6464 14.3536C25.5527 14.2598 25.5 14.1326 25.5 14V11.5H19C18.8674 11.5 18.7402 11.4473 18.6464 11.3536C18.5527 11.2598 18.5 11.1326 18.5 11V4.5H7C6.86739 4.5 6.74021 4.55268 6.64645 4.64645C6.55268 4.74022 6.5 4.86739 6.5 5V14C6.5 14.1326 6.44732 14.2598 6.35355 14.3536C6.25979 14.4473 6.13261 14.5 6 14.5C5.86739 14.5 5.74021 14.4473 5.64645 14.3536C5.55268 14.2598 5.5 14.1326 5.5 14V5C5.5 4.60218 5.65804 4.22064 5.93934 3.93934C6.22064 3.65804 6.60218 3.5 7 3.5H19C19.0657 3.49995 19.1307 3.51284 19.1914 3.53793C19.2521 3.56303 19.3073 3.59983 19.3538 3.64625L26.3538 10.6462C26.4002 10.6927 26.437 10.7479 26.4621 10.8086C26.4872 10.8693 26.5001 10.9343 26.5 11ZM24.7925 10.5L19.5 5.20625V10.5H24.7925Z" fill="white"/>
<path d="M29.4362 26.099C28.5923 26.099 27.8806 25.9413 27.3009 25.626C26.7212 25.3033 26.2809 24.845 25.9801 24.251C25.6865 23.657 25.5398 22.9493 25.5398 22.128C25.5398 21.512 25.6242 20.962 25.7929 20.478C25.9691 19.9867 26.2185 19.5687 26.5414 19.224C26.8716 18.872 27.2715 18.6043 27.7411 18.421C28.2181 18.2377 28.7574 18.146 29.3591 18.146C29.7994 18.146 30.2323 18.2047 30.6579 18.322C31.0835 18.432 31.4724 18.6153 31.8246 18.872C31.9274 18.9453 31.9934 19.0297 32.0227 19.125C32.0521 19.2203 32.0521 19.3193 32.0227 19.422C32.0007 19.5173 31.953 19.6017 31.8797 19.675C31.8136 19.7483 31.7292 19.7923 31.6265 19.807C31.5311 19.8217 31.4247 19.7923 31.3073 19.719C31.0211 19.521 30.7203 19.378 30.4048 19.29C30.0892 19.1947 29.7407 19.147 29.3591 19.147C28.7868 19.147 28.3025 19.2643 27.9062 19.499C27.5173 19.7337 27.2238 20.0747 27.0257 20.522C26.8276 20.962 26.7285 21.4973 26.7285 22.128C26.7285 23.1033 26.9597 23.844 27.4219 24.35C27.8842 24.856 28.5703 25.109 29.4802 25.109C29.8104 25.109 30.1333 25.0797 30.4488 25.021C30.7717 24.955 31.0798 24.8633 31.3734 24.746L31.1422 25.318V22.755H29.7223C29.5756 22.755 29.4582 22.7183 29.3701 22.645C29.2894 22.5643 29.2491 22.4543 29.2491 22.315C29.2491 22.1757 29.2894 22.073 29.3701 22.007C29.4582 21.9337 29.5756 21.897 29.7223 21.897H31.6265C31.7806 21.897 31.898 21.9373 31.9787 22.018C32.0594 22.0987 32.0998 22.216 32.0998 22.37V25.142C32.0998 25.274 32.0741 25.3877 32.0227 25.483C31.9787 25.571 31.9017 25.637 31.7916 25.681C31.4761 25.8057 31.1055 25.9083 30.6799 25.989C30.2543 26.0623 29.8397 26.099 29.4362 26.099Z" fill="white"/>
<path d="M18.6297 26.077C18.4464 26.077 18.3034 26.0256 18.2007 25.923C18.1054 25.8203 18.0577 25.6773 18.0577 25.494V18.74C18.0577 18.5493 18.1054 18.4063 18.2007 18.311C18.3034 18.2156 18.4464 18.168 18.6297 18.168C18.8131 18.168 18.9524 18.2156 19.0477 18.311C19.1504 18.4063 19.2017 18.5493 19.2017 18.74V21.732H19.2237L22.6007 18.465C22.7107 18.3623 22.8134 18.289 22.9087 18.245C23.0114 18.1936 23.1251 18.168 23.2497 18.168C23.4184 18.168 23.5394 18.212 23.6127 18.3C23.6934 18.3806 23.7264 18.4796 23.7117 18.597C23.6971 18.7143 23.6347 18.828 23.5247 18.938L20.0157 22.282L20.0377 21.721L23.6897 25.241C23.8217 25.3656 23.8914 25.494 23.8987 25.626C23.9061 25.758 23.8657 25.868 23.7777 25.956C23.6897 26.0366 23.5651 26.077 23.4037 26.077C23.2571 26.077 23.1397 26.0476 23.0517 25.989C22.9637 25.9303 22.8611 25.846 22.7437 25.736L19.2237 22.381H19.2017V25.494C19.2017 25.6773 19.1541 25.8203 19.0587 25.923C18.9634 26.0256 18.8204 26.077 18.6297 26.077Z" fill="white"/>
<path d="M10.5721 26.0771C10.3888 26.0771 10.2458 26.0258 10.1431 25.9231C10.0478 25.8205 10.0001 25.6775 10.0001 25.4941V18.8281C10.0001 18.6375 10.0515 18.4945 10.1541 18.3991C10.2568 18.2965 10.3998 18.2451 10.5831 18.2451H13.2121C14.0481 18.2451 14.6935 18.4541 15.1481 18.8721C15.6028 19.2828 15.8301 19.8621 15.8301 20.6101C15.8301 21.3655 15.6028 21.9521 15.1481 22.3701C14.6935 22.7808 14.0481 22.9861 13.2121 22.9861H11.1441V25.4941C11.1441 25.6775 11.0965 25.8205 11.0011 25.9231C10.9058 26.0258 10.7628 26.0771 10.5721 26.0771ZM11.1441 22.0731H13.0471C13.5971 22.0731 14.0115 21.9521 14.2901 21.7101C14.5761 21.4608 14.7191 21.0941 14.7191 20.6101C14.7191 20.1335 14.5761 19.7741 14.2901 19.5321C14.0115 19.2828 13.5971 19.1581 13.0471 19.1581H11.1441V22.0731Z" fill="white"/>
<path d="M4.58419 26.099C3.74085 26.099 3.02952 25.9413 2.45019 25.626C1.87085 25.3033 1.43085 24.845 1.13019 24.251C0.836852 23.657 0.690186 22.9493 0.690186 22.128C0.690186 21.512 0.774519 20.962 0.943186 20.478C1.11919 19.9867 1.36852 19.5687 1.69119 19.224C2.02119 18.872 2.42085 18.6043 2.89019 18.421C3.36685 18.2377 3.90585 18.146 4.50719 18.146C4.94719 18.146 5.37985 18.2047 5.80519 18.322C6.23052 18.432 6.61919 18.6153 6.97119 18.872C7.07385 18.9453 7.13985 19.0297 7.16919 19.125C7.19852 19.2203 7.19852 19.3193 7.16919 19.422C7.14719 19.5173 7.09952 19.6017 7.02619 19.675C6.96019 19.7483 6.87585 19.7923 6.77319 19.807C6.67785 19.8217 6.57152 19.7923 6.45419 19.719C6.16819 19.521 5.86752 19.378 5.55219 19.29C5.23685 19.1947 4.88852 19.147 4.50719 19.147C3.93519 19.147 3.45119 19.2643 3.05519 19.499C2.66652 19.7337 2.37319 20.0747 2.17519 20.522C1.97719 20.962 1.87819 21.4973 1.87819 22.128C1.87819 23.1033 2.10919 23.844 2.57119 24.35C3.03319 24.856 3.71885 25.109 4.62819 25.109C4.95819 25.109 5.28085 25.0797 5.59619 25.021C5.91885 24.955 6.22685 24.8633 6.52019 24.746L6.28919 25.318V22.755H4.87019C4.72352 22.755 4.60619 22.7183 4.51819 22.645C4.43752 22.5643 4.39719 22.4543 4.39719 22.315C4.39719 22.1757 4.43752 22.073 4.51819 22.007C4.60619 21.9337 4.72352 21.897 4.87019 21.897H6.77319C6.92719 21.897 7.04452 21.9373 7.12519 22.018C7.20585 22.0987 7.24619 22.216 7.24619 22.37V25.142C7.24619 25.274 7.22052 25.3877 7.16919 25.483C7.12519 25.571 7.04819 25.637 6.93819 25.681C6.62285 25.8057 6.25252 25.9083 5.82719 25.989C5.40185 26.0623 4.98752 26.099 4.58419 26.099Z" fill="white"/>
</svg>
