<svg width="32" height="32" viewBox="0 0 32 32" fill="none" xmlns="http://www.w3.org/2000/svg">
<path d="M26.5 11V14C26.5 14.1326 26.4473 14.2598 26.3536 14.3536C26.2598 14.4473 26.1326 14.5 26 14.5C25.8674 14.5 25.7402 14.4473 25.6464 14.3536C25.5527 14.2598 25.5 14.1326 25.5 14V11.5H19C18.8674 11.5 18.7402 11.4473 18.6464 11.3536C18.5527 11.2598 18.5 11.1326 18.5 11V4.5H7C6.86739 4.5 6.74021 4.55268 6.64645 4.64645C6.55268 4.74022 6.5 4.86739 6.5 5V14C6.5 14.1326 6.44732 14.2598 6.35355 14.3536C6.25979 14.4473 6.13261 14.5 6 14.5C5.86739 14.5 5.74021 14.4473 5.64645 14.3536C5.55268 14.2598 5.5 14.1326 5.5 14V5C5.5 4.60218 5.65804 4.22064 5.93934 3.93934C6.22064 3.65804 6.60218 3.5 7 3.5H19C19.0657 3.49995 19.1307 3.51284 19.1914 3.53793C19.2521 3.56303 19.3073 3.59983 19.3538 3.64625L26.3538 10.6462C26.4002 10.6927 26.437 10.7479 26.4621 10.8086C26.4872 10.8693 26.5001 10.9343 26.5 11ZM24.7925 10.5L19.5 5.20625V10.5H24.7925Z" fill="white"/>
<path d="M23.9975 26.077C23.8362 26.077 23.7005 26.0403 23.5905 25.967C23.4878 25.8863 23.4035 25.769 23.3375 25.615L20.3785 18.916C20.3198 18.762 20.3052 18.63 20.3345 18.52C20.3638 18.41 20.4225 18.3256 20.5105 18.267C20.6058 18.201 20.7195 18.168 20.8515 18.168C21.0202 18.168 21.1485 18.2046 21.2365 18.278C21.3245 18.3513 21.3978 18.4613 21.4565 18.608L24.2285 25.032H23.8215L26.5715 18.597C26.6375 18.4576 26.7145 18.3513 26.8025 18.278C26.8978 18.2046 27.0262 18.168 27.1875 18.168C27.3195 18.168 27.4258 18.201 27.5065 18.267C27.5945 18.3256 27.6495 18.41 27.6715 18.52C27.6935 18.63 27.6715 18.762 27.6055 18.916L24.6575 25.615C24.5915 25.769 24.5072 25.8863 24.4045 25.967C24.3018 26.0403 24.1662 26.077 23.9975 26.077Z" fill="white"/>
<path d="M15.9206 26.099C15.5832 26.099 15.2532 26.0733 14.9306 26.022C14.6079 25.9707 14.3036 25.8937 14.0176 25.791C13.7316 25.681 13.4749 25.549 13.2476 25.395C13.1376 25.3143 13.0606 25.2227 13.0166 25.12C12.9799 25.0173 12.9689 24.9183 12.9836 24.823C13.0056 24.7203 13.0496 24.6323 13.1156 24.559C13.1816 24.4857 13.2622 24.4417 13.3576 24.427C13.4529 24.405 13.5592 24.4343 13.6766 24.515C14.0066 24.7277 14.3549 24.8853 14.7216 24.988C15.0882 25.0833 15.4879 25.131 15.9206 25.131C16.5439 25.131 17.0022 25.021 17.2956 24.801C17.5962 24.5737 17.7466 24.2803 17.7466 23.921C17.7466 23.6277 17.6402 23.3967 17.4276 23.228C17.2149 23.052 16.8592 22.9127 16.3606 22.81L15.1836 22.568C14.4869 22.4213 13.9662 22.1793 13.6216 21.842C13.2842 21.5047 13.1156 21.05 13.1156 20.478C13.1156 20.1333 13.1852 19.818 13.3246 19.532C13.4712 19.246 13.6729 19.0003 13.9296 18.795C14.1862 18.5823 14.4942 18.421 14.8536 18.311C15.2129 18.201 15.6052 18.146 16.0306 18.146C16.4852 18.146 16.9106 18.2047 17.3066 18.322C17.7099 18.4393 18.0692 18.619 18.3846 18.861C18.4799 18.927 18.5422 19.0113 18.5716 19.114C18.6082 19.2093 18.6156 19.3047 18.5936 19.4C18.5789 19.4953 18.5386 19.576 18.4726 19.642C18.4066 19.708 18.3222 19.7483 18.2196 19.763C18.1169 19.7703 18.0032 19.7337 17.8786 19.653C17.5926 19.4623 17.2992 19.3267 16.9986 19.246C16.7052 19.158 16.3789 19.114 16.0196 19.114C15.6602 19.114 15.3449 19.169 15.0736 19.279C14.8096 19.389 14.6042 19.543 14.4576 19.741C14.3182 19.939 14.2486 20.1737 14.2486 20.445C14.2486 20.753 14.3476 20.9987 14.5456 21.182C14.7436 21.3653 15.0736 21.5047 15.5356 21.6L16.7016 21.842C17.4349 21.996 17.9812 22.2343 18.3406 22.557C18.6999 22.8797 18.8796 23.3087 18.8796 23.844C18.8796 24.1887 18.8099 24.5003 18.6706 24.779C18.5312 25.0503 18.3332 25.285 18.0766 25.483C17.8199 25.681 17.5082 25.835 17.1416 25.945C16.7822 26.0477 16.3752 26.099 15.9206 26.099Z" fill="white"/>
<path d="M8.52833 26.099C7.74366 26.099 7.07266 25.9377 6.51533 25.615C5.958 25.2923 5.529 24.834 5.22833 24.24C4.935 23.6387 4.78833 22.931 4.78833 22.117C4.78833 21.5083 4.87266 20.962 5.04133 20.478C5.21 19.9867 5.452 19.5687 5.76733 19.224C6.09 18.872 6.48233 18.6043 6.94433 18.421C7.41366 18.2377 7.94166 18.146 8.52833 18.146C8.961 18.146 9.37533 18.2047 9.77133 18.322C10.1747 18.4393 10.523 18.608 10.8163 18.828C10.941 18.9087 11.0217 19.0077 11.0583 19.125C11.1023 19.235 11.1097 19.3413 11.0803 19.444C11.0583 19.5467 11.0107 19.6347 10.9373 19.708C10.864 19.774 10.7687 19.8107 10.6513 19.818C10.5413 19.8253 10.4203 19.785 10.2883 19.697C10.0463 19.5137 9.77866 19.378 9.48533 19.29C9.192 19.202 8.884 19.158 8.56133 19.158C8.004 19.158 7.53466 19.2753 7.15333 19.51C6.772 19.7373 6.48233 20.071 6.28433 20.511C6.08633 20.951 5.98733 21.4863 5.98733 22.117C5.98733 22.7477 6.08633 23.2867 6.28433 23.734C6.48233 24.174 6.772 24.5113 7.15333 24.746C7.53466 24.9733 8.004 25.087 8.56133 25.087C8.884 25.087 9.192 25.043 9.48533 24.955C9.786 24.8597 10.0683 24.7203 10.3323 24.537C10.4643 24.4563 10.5817 24.4197 10.6843 24.427C10.7943 24.4343 10.886 24.471 10.9593 24.537C11.0327 24.603 11.0803 24.6873 11.1023 24.79C11.1317 24.8853 11.128 24.988 11.0913 25.098C11.062 25.2007 10.9923 25.2887 10.8823 25.362C10.5817 25.604 10.226 25.7873 9.81533 25.912C9.40466 26.0367 8.97566 26.099 8.52833 26.099Z" fill="white"/>
</svg>
