<svg width="32" height="32" viewBox="0 0 32 32" fill="none" xmlns="http://www.w3.org/2000/svg">
<path d="M26.3538 10.6462L19.3538 3.64625C19.3073 3.59983 19.2521 3.56303 19.1914 3.53793C19.1307 3.51284 19.0657 3.49995 19 3.5H7C6.60218 3.5 6.22064 3.65804 5.93934 3.93934C5.65804 4.22064 5.5 4.60218 5.5 5V14C5.5 14.1326 5.55268 14.2598 5.64645 14.3536C5.74021 14.4473 5.86739 14.5 6 14.5C6.13261 14.5 6.25979 14.4473 6.35355 14.3536C6.44732 14.2598 6.5 14.1326 6.5 14V5C6.5 4.86739 6.55268 4.74022 6.64645 4.64645C6.74021 4.55268 6.86739 4.5 7 4.5H18.5V11C18.5 11.1326 18.5527 11.2598 18.6464 11.3536C18.7402 11.4473 18.8674 11.5 19 11.5H25.5V14C25.5 14.1326 25.5527 14.2598 25.6464 14.3536C25.7402 14.4473 25.8674 14.5 26 14.5C26.1326 14.5 26.2598 14.4473 26.3536 14.3536C26.4473 14.2598 26.5 14.1326 26.5 14V11C26.5001 10.9343 26.4872 10.8693 26.4621 10.8086C26.437 10.7479 26.4002 10.6927 26.3538 10.6462ZM19.5 10.5V5.20625L24.7925 10.5H19.5Z" fill="currentColor"/>
<path fill-rule="evenodd" clip-rule="evenodd" d="M12.421 8.13379C12.3941 8.09264 12.3577 8.05889 12.315 8.03555C12.2723 8.01221 12.2246 8 12.1761 8C12.1277 8 12.0799 8.01221 12.0372 8.03555C11.9945 8.05889 11.9581 8.09264 11.9313 8.13379L10.1481 10.7398L9.00075 9.06267C8.97409 9.02056 8.93751 8.98595 8.89435 8.96198C8.85119 8.93801 8.80283 8.92545 8.75369 8.92545C8.70454 8.92545 8.65618 8.93801 8.61302 8.96198C8.56987 8.98595 8.53328 9.02056 8.50662 9.06267L7.03623 11.5619L5.56584 14C5.53735 14.0453 5.56772 14.1355 5.56584 14.1892C5.56397 14.243 5.71697 14.2963 5.74223 14.3436C5.76749 14.3908 5.80475 14.4302 5.85009 14.4577C5.89544 14.4852 5.9472 14.4998 5.99995 14.4999L15.6495 14.5038C15.7028 14.5038 15.755 14.4891 15.8007 14.4612C15.8464 14.4333 15.8838 14.3932 15.909 14.3454C15.9341 14.2975 15.946 14.2435 15.9435 14.1892C15.9409 14.135 15.9239 14.0825 15.8944 14.0373L12.421 8.13379ZM8.94073 10.3682L7.97034 11.8889L6.99995 13.4999H14.5L12.1761 9.24993L10.3952 11.8665C10.3684 11.9083 10.3317 11.9424 10.2885 11.9658C10.2453 11.9891 10.197 12.0009 10.1481 12C10.0993 11.9996 10.0514 11.9869 10.0087 11.9629C9.96595 11.939 9.92972 11.9045 9.90326 11.8628L8.94073 10.3682Z" fill="currentColor"/>
<path d="M26.1243 26.099C25.281 26.099 24.5696 25.9413 23.9903 25.626C23.411 25.3033 22.971 24.845 22.6703 24.251C22.377 23.657 22.2303 22.9493 22.2303 22.128C22.2303 21.512 22.3146 20.962 22.4833 20.478C22.6593 19.9867 22.9086 19.5687 23.2313 19.224C23.5613 18.872 23.961 18.6043 24.4303 18.421C24.907 18.2377 25.446 18.146 26.0473 18.146C26.4873 18.146 26.92 18.2047 27.3453 18.322C27.7706 18.432 28.1593 18.6153 28.5113 18.872C28.614 18.9453 28.68 19.0297 28.7093 19.125C28.7386 19.2203 28.7386 19.3193 28.7093 19.422C28.6873 19.5173 28.6396 19.6017 28.5663 19.675C28.5003 19.7483 28.416 19.7923 28.3133 19.807C28.218 19.8217 28.1116 19.7923 27.9943 19.719C27.7083 19.521 27.4076 19.378 27.0923 19.29C26.777 19.1947 26.4286 19.147 26.0473 19.147C25.4753 19.147 24.9913 19.2643 24.5953 19.499C24.2066 19.7337 23.9133 20.0747 23.7153 20.522C23.5173 20.962 23.4183 21.4973 23.4183 22.128C23.4183 23.1033 23.6493 23.844 24.1113 24.35C24.5733 24.856 25.259 25.109 26.1683 25.109C26.4983 25.109 26.821 25.0797 27.1363 25.021C27.459 24.955 27.767 24.8633 28.0603 24.746L27.8293 25.318V22.755H26.4103C26.2636 22.755 26.1463 22.7183 26.0583 22.645C25.9776 22.5643 25.9373 22.4543 25.9373 22.315C25.9373 22.1757 25.9776 22.073 26.0583 22.007C26.1463 21.9337 26.2636 21.897 26.4103 21.897H28.3133C28.4673 21.897 28.5846 21.9373 28.6653 22.018C28.746 22.0987 28.7863 22.216 28.7863 22.37V25.142C28.7863 25.274 28.7606 25.3877 28.7093 25.483C28.6653 25.571 28.5883 25.637 28.4783 25.681C28.163 25.8057 27.7926 25.9083 27.3673 25.989C26.942 26.0623 26.5276 26.099 26.1243 26.099Z" fill="currentColor"/>
<path d="M15.6542 26.0001C15.4562 26.0001 15.3022 25.9488 15.1922 25.8461C15.0895 25.7361 15.0382 25.5821 15.0382 25.3841V18.8611C15.0382 18.6631 15.0895 18.5128 15.1922 18.4101C15.3022 18.3001 15.4562 18.2451 15.6542 18.2451H19.6692C19.8232 18.2451 19.9405 18.2855 20.0212 18.3661C20.1019 18.4395 20.1422 18.5495 20.1422 18.6961C20.1422 18.8501 20.1019 18.9675 20.0212 19.0481C19.9405 19.1288 19.8232 19.1691 19.6692 19.1691H16.1382V21.6001H19.4272C19.5885 21.6001 19.7059 21.6405 19.7792 21.7211C19.8599 21.8018 19.9002 21.9155 19.9002 22.0621C19.9002 22.2161 19.8599 22.3335 19.7792 22.4141C19.7059 22.4875 19.5885 22.5241 19.4272 22.5241H16.1382V25.0761H19.6692C19.8232 25.0761 19.9405 25.1165 20.0212 25.1971C20.1019 25.2778 20.1422 25.3915 20.1422 25.5381C20.1422 25.6921 20.1019 25.8095 20.0212 25.8901C19.9405 25.9635 19.8232 26.0001 19.6692 26.0001H15.6542Z" fill="currentColor"/>
<path d="M7.55259 26.0771C7.36926 26.0771 7.22626 26.0258 7.12359 25.9231C7.02826 25.8205 6.98059 25.6775 6.98059 25.4941V18.8281C6.98059 18.6375 7.03192 18.4945 7.13459 18.3991C7.23726 18.2965 7.38026 18.2451 7.56359 18.2451H10.1926C11.0286 18.2451 11.6739 18.4541 12.1286 18.8721C12.5833 19.2828 12.8106 19.8621 12.8106 20.6101C12.8106 21.3655 12.5833 21.9521 12.1286 22.3701C11.6739 22.7808 11.0286 22.9861 10.1926 22.9861H8.12459V25.4941C8.12459 25.6775 8.07692 25.8205 7.98159 25.9231C7.88626 26.0258 7.74326 26.0771 7.55259 26.0771ZM8.12459 22.0731H10.0276C10.5776 22.0731 10.9919 21.9521 11.2706 21.7101C11.5566 21.4608 11.6996 21.0941 11.6996 20.6101C11.6996 20.1335 11.5566 19.7741 11.2706 19.5321C10.9919 19.2828 10.5776 19.1581 10.0276 19.1581H8.12459V22.0731Z" fill="currentColor"/>
<path d="M1.75781 26.066C1.58914 26.0733 1.45714 26.0293 1.36181 25.934C1.26648 25.8386 1.21881 25.7176 1.21881 25.571C1.21881 25.461 1.25548 25.362 1.32881 25.274C1.39481 25.186 1.49381 25.1383 1.62581 25.131L1.96681 25.109C2.31881 25.0796 2.58648 24.9623 2.76981 24.757C2.95314 24.5443 3.04481 24.251 3.04481 23.877V18.74C3.04481 18.5493 3.09248 18.4063 3.18781 18.311C3.28314 18.2156 3.42248 18.168 3.60581 18.168C3.78914 18.168 3.92848 18.2156 4.02381 18.311C4.12648 18.4063 4.17781 18.5493 4.17781 18.74V23.877C4.17781 24.317 4.09714 24.6946 3.93581 25.01C3.78181 25.318 3.55448 25.56 3.25381 25.736C2.95314 25.912 2.57914 26.0146 2.13181 26.044L1.75781 26.066Z" fill="currentColor"/>
</svg>
