<svg width="32" height="32" viewBox="0 0 32 32" fill="none" xmlns="http://www.w3.org/2000/svg">
<path d="M26.5 11V14C26.5 14.1326 26.4473 14.2598 26.3536 14.3536C26.2598 14.4473 26.1326 14.5 26 14.5C25.8674 14.5 25.7402 14.4473 25.6464 14.3536C25.5527 14.2598 25.5 14.1326 25.5 14V11.5H19C18.8674 11.5 18.7402 11.4473 18.6464 11.3536C18.5527 11.2598 18.5 11.1326 18.5 11V4.5H7C6.86739 4.5 6.74021 4.55268 6.64645 4.64645C6.55268 4.74022 6.5 4.86739 6.5 5V14C6.5 14.1326 6.44732 14.2598 6.35355 14.3536C6.25979 14.4473 6.13261 14.5 6 14.5C5.86739 14.5 5.74021 14.4473 5.64645 14.3536C5.55268 14.2598 5.5 14.1326 5.5 14V5C5.5 4.60218 5.65804 4.22064 5.93934 3.93934C6.22064 3.65804 6.60218 3.5 7 3.5H19C19.0657 3.49995 19.1307 3.51284 19.1914 3.53793C19.2521 3.56303 19.3073 3.59983 19.3538 3.64625L26.3538 10.6462C26.4002 10.6927 26.437 10.7479 26.4621 10.8086C26.4872 10.8693 26.5001 10.9343 26.5 11ZM24.7925 10.5L19.5 5.20625V10.5H24.7925Z" fill="currentColor"/>
<path d="M22.7209 25.92C22.5522 25.9273 22.4202 25.8833 22.3249 25.788C22.2296 25.6926 22.1819 25.5716 22.1819 25.425C22.1819 25.315 22.2186 25.216 22.2919 25.128C22.3579 25.04 22.4569 24.9923 22.5889 24.985L22.9299 24.963C23.2819 24.9336 23.5496 24.8163 23.7329 24.611C23.9162 24.3983 24.0079 24.105 24.0079 23.731V18.594C24.0079 18.4033 24.0556 18.2603 24.1509 18.165C24.2462 18.0696 24.3856 18.022 24.5689 18.022C24.7522 18.022 24.8916 18.0696 24.9869 18.165C25.0896 18.2603 25.1409 18.4033 25.1409 18.594V23.731C25.1409 24.171 25.0602 24.5486 24.8989 24.864C24.7449 25.172 24.5176 25.414 24.2169 25.59C23.9162 25.766 23.5422 25.8686 23.0949 25.898L22.7209 25.92Z" fill="currentColor"/>
<path d="M15.4093 25.8541C15.2113 25.8541 15.0573 25.8028 14.9473 25.7001C14.8447 25.5901 14.7933 25.4361 14.7933 25.2381V18.7151C14.7933 18.5171 14.8447 18.3668 14.9473 18.2641C15.0573 18.1541 15.2113 18.0991 15.4093 18.0991H18.0273C18.5627 18.0991 19.0173 18.1798 19.3913 18.3411C19.7727 18.5025 20.0623 18.7335 20.2603 19.0341C20.4657 19.3348 20.5683 19.6978 20.5683 20.1231C20.5683 20.5925 20.429 20.9885 20.1503 21.3111C19.8717 21.6338 19.494 21.8501 19.0173 21.9601V21.7951C19.56 21.8685 19.9853 22.0738 20.2933 22.4111C20.6013 22.7411 20.7553 23.1738 20.7553 23.7091C20.7553 24.3985 20.528 24.9301 20.0733 25.3041C19.6187 25.6708 18.9807 25.8541 18.1593 25.8541H15.4093ZM15.8933 24.9741H18.0273C18.5773 24.9741 18.9843 24.8678 19.2483 24.6551C19.5123 24.4351 19.6443 24.1051 19.6443 23.6651C19.6443 23.2251 19.5123 22.8988 19.2483 22.6861C18.9843 22.4735 18.5773 22.3671 18.0273 22.3671H15.8933V24.9741ZM15.8933 21.4871H17.8513C18.3793 21.4871 18.779 21.3808 19.0503 21.1681C19.3217 20.9555 19.4573 20.6438 19.4573 20.2331C19.4573 19.8225 19.3217 19.5108 19.0503 19.2981C18.779 19.0855 18.3793 18.9791 17.8513 18.9791H15.8933V21.4871Z" fill="currentColor"/>
<path d="M8.63 25.953C7.89667 25.953 7.255 25.7917 6.705 25.469C6.16233 25.139 5.74067 24.677 5.44 24.083C5.14667 23.4817 5 22.7777 5 21.971C5 21.3623 5.08433 20.816 5.253 20.332C5.42167 19.8407 5.66367 19.4227 5.979 19.078C6.29433 18.726 6.67567 18.4583 7.123 18.275C7.57033 18.0917 8.07267 18 8.63 18C9.37067 18 10.0123 18.1613 10.555 18.484C11.0977 18.8067 11.5157 19.265 11.809 19.859C12.1097 20.453 12.26 21.1533 12.26 21.96C12.26 22.5687 12.1757 23.1187 12.007 23.61C11.8383 24.1013 11.5927 24.523 11.27 24.875C10.9547 25.227 10.5733 25.4947 10.126 25.678C9.67867 25.8613 9.18 25.953 8.63 25.953ZM8.63 24.963C9.14333 24.963 9.57967 24.8457 9.939 24.611C10.3057 24.3763 10.5843 24.0353 10.775 23.588C10.973 23.1407 11.072 22.6017 11.072 21.971C11.072 21.025 10.8593 20.2917 10.434 19.771C10.0087 19.2503 9.40733 18.99 8.63 18.99C8.11667 18.99 7.67667 19.1073 7.31 19.342C6.95067 19.5693 6.672 19.9067 6.474 20.354C6.28333 20.8013 6.188 21.3403 6.188 21.971C6.188 22.9097 6.40067 23.643 6.826 24.171C7.25867 24.699 7.86 24.963 8.63 24.963Z" fill="currentColor"/>
</svg>
