<svg width="32" height="32" viewBox="0 0 32 32" fill="none" xmlns="http://www.w3.org/2000/svg">
<path d="M25.5 14C25.5 14.1326 25.5527 14.2598 25.6464 14.3536C25.7402 14.4473 25.8674 14.5 26 14.5C26.1326 14.5 26.2598 14.4473 26.3536 14.3536C26.4473 14.2598 26.5 14.1326 26.5 14V11C26.5001 10.9343 26.4872 10.8693 26.4621 10.8086C26.437 10.7479 26.4002 10.6927 26.3538 10.6462L19.3538 3.64625C19.3073 3.59983 19.2521 3.56303 19.1914 3.53793C19.1307 3.51284 19.0657 3.49995 19 3.5H7C6.60218 3.5 6.22064 3.65804 5.93934 3.93934C5.65804 4.22064 5.5 4.60218 5.5 5V14C5.5 14.1326 5.55268 14.2598 5.64645 14.3536C5.74021 14.4473 5.86739 14.5 6 14.5C6.13261 14.5 6.25979 14.4473 6.35355 14.3536C6.44732 14.2598 6.5 14.1326 6.5 14V5C6.5 4.86739 6.55268 4.74022 6.64645 4.64645C6.74021 4.55268 6.86739 4.5 7 4.5H18.5V11C18.5 11.1326 18.5527 11.2598 18.6464 11.3536C18.7402 11.4473 18.8674 11.5 19 11.5H25.5V14ZM19.5 10.5V5.20625L24.7925 10.5H19.5Z" fill="white"/>
<path fill-rule="evenodd" clip-rule="evenodd" d="M12.421 8.13379C12.3941 8.09264 12.3577 8.05889 12.315 8.03555C12.2723 8.01221 12.2246 8 12.1761 8C12.1277 8 12.0799 8.01221 12.0372 8.03555C11.9945 8.05889 11.9581 8.09264 11.9313 8.13379L10.1481 10.7398L9.00075 9.06267C8.97409 9.02056 8.93751 8.98595 8.89435 8.96198C8.85119 8.93801 8.80283 8.92545 8.75369 8.92545C8.70454 8.92545 8.65618 8.93801 8.61302 8.96198C8.56987 8.98595 8.53328 9.02056 8.50662 9.06267L7.03623 11.5619L5.56584 14C5.53735 14.0453 5.56772 14.1355 5.56584 14.1892C5.56397 14.243 5.71697 14.2963 5.74223 14.3436C5.76749 14.3908 5.80475 14.4302 5.85009 14.4577C5.89544 14.4852 5.9472 14.4998 5.99995 14.4999L15.6495 14.5038C15.7028 14.5038 15.755 14.4891 15.8007 14.4612C15.8464 14.4333 15.8838 14.3932 15.909 14.3454C15.9341 14.2975 15.946 14.2435 15.9435 14.1892C15.9409 14.135 15.9239 14.0825 15.8944 14.0373L12.421 8.13379ZM8.94073 10.3682L7.97034 11.8889L6.99995 13.4999H14.5L12.1761 9.24993L10.3952 11.8665C10.3684 11.9083 10.3317 11.9424 10.2885 11.9658C10.2453 11.9891 10.197 12.0009 10.1481 12C10.0993 11.9996 10.0514 11.9869 10.0087 11.9629C9.96595 11.939 9.92972 11.9045 9.90326 11.8628L8.94073 10.3682Z" fill="white"/>
<path d="M23.341 26.0771C23.1503 26.0771 23 26.0258 22.89 25.9231C22.7873 25.8205 22.736 25.6701 22.736 25.4721V18.8611C22.736 18.6631 22.7873 18.5128 22.89 18.4101C23 18.3001 23.154 18.2451 23.352 18.2451H27.268C27.4293 18.2451 27.5466 18.2855 27.62 18.3661C27.7006 18.4395 27.741 18.5495 27.741 18.6961C27.741 18.8501 27.7006 18.9675 27.62 19.0481C27.5466 19.1288 27.4293 19.1691 27.268 19.1691H23.88V21.6441H27.048C27.1946 21.6441 27.3083 21.6845 27.389 21.7651C27.477 21.8385 27.521 21.9485 27.521 22.0951C27.521 22.2491 27.477 22.3665 27.389 22.4471C27.3083 22.5278 27.1946 22.5681 27.048 22.5681H23.88V25.4721C23.88 25.8755 23.7003 26.0771 23.341 26.0771Z" fill="white"/>
<path d="M16.2501 26.0771C16.0595 26.0771 15.9091 26.0258 15.7991 25.9231C15.6965 25.8205 15.6451 25.6701 15.6451 25.4721V18.8611C15.6451 18.6631 15.6965 18.5128 15.7991 18.4101C15.9091 18.3001 16.0631 18.2451 16.2611 18.2451H20.1771C20.3385 18.2451 20.4558 18.2855 20.5291 18.3661C20.6098 18.4395 20.6501 18.5495 20.6501 18.6961C20.6501 18.8501 20.6098 18.9675 20.5291 19.0481C20.4558 19.1288 20.3385 19.1691 20.1771 19.1691H16.7891V21.6441H19.9571C20.1038 21.6441 20.2175 21.6845 20.2981 21.7651C20.3861 21.8385 20.4301 21.9485 20.4301 22.0951C20.4301 22.2491 20.3861 22.3665 20.2981 22.4471C20.2175 22.5278 20.1038 22.5681 19.9571 22.5681H16.7891V25.4721C16.7891 25.8755 16.6095 26.0771 16.2501 26.0771Z" fill="white"/>
<path d="M12.2738 26.077C12.0904 26.077 11.9474 26.0256 11.8448 25.923C11.7494 25.8203 11.7018 25.6773 11.7018 25.494V18.751C11.7018 18.5603 11.7494 18.4173 11.8448 18.322C11.9474 18.2193 12.0904 18.168 12.2738 18.168C12.4571 18.168 12.5964 18.2193 12.6918 18.322C12.7944 18.4173 12.8458 18.5603 12.8458 18.751V25.494C12.8458 25.6773 12.7981 25.8203 12.7028 25.923C12.6074 26.0256 12.4644 26.077 12.2738 26.077Z" fill="white"/>
<path d="M6.44124 26.0771C6.2579 26.0771 6.1149 26.0258 6.01224 25.9231C5.9169 25.8205 5.86924 25.6775 5.86924 25.4941V19.2021H3.53724C3.38324 19.2021 3.26224 19.1618 3.17424 19.0811C3.08624 18.9931 3.04224 18.8721 3.04224 18.7181C3.04224 18.5641 3.08624 18.4468 3.17424 18.3661C3.26224 18.2855 3.38324 18.2451 3.53724 18.2451H9.33424C9.49557 18.2451 9.62024 18.2855 9.70824 18.3661C9.79624 18.4468 9.84024 18.5641 9.84024 18.7181C9.84024 18.8721 9.79624 18.9931 9.70824 19.0811C9.62024 19.1618 9.49557 19.2021 9.33424 19.2021H7.00224V25.4941C7.00224 25.6775 6.95457 25.8205 6.85924 25.9231C6.77124 26.0258 6.6319 26.0771 6.44124 26.0771Z" fill="white"/>
</svg>
