<svg width="32" height="32" viewBox="0 0 32 32" fill="none" xmlns="http://www.w3.org/2000/svg">
<path d="M25.5 14C25.5 14.1326 25.5527 14.2598 25.6464 14.3536C25.7402 14.4473 25.8674 14.5 26 14.5C26.1326 14.5 26.2598 14.4473 26.3536 14.3536C26.4473 14.2598 26.5 14.1326 26.5 14V11C26.5001 10.9343 26.4872 10.8693 26.4621 10.8086C26.437 10.7479 26.4002 10.6927 26.3538 10.6462L19.3538 3.64625C19.3073 3.59983 19.2521 3.56303 19.1914 3.53793C19.1307 3.51284 19.0657 3.49995 19 3.5H7C6.60218 3.5 6.22064 3.65804 5.93934 3.93934C5.65804 4.22064 5.5 4.60218 5.5 5V14C5.5 14.1326 5.55268 14.2598 5.64645 14.3536C5.74021 14.4473 5.86739 14.5 6 14.5C6.13261 14.5 6.25979 14.4473 6.35355 14.3536C6.44732 14.2598 6.5 14.1326 6.5 14V5C6.5 4.86739 6.55268 4.74022 6.64645 4.64645C6.74021 4.55268 6.86739 4.5 7 4.5H18.5V11C18.5 11.1326 18.5527 11.2598 18.6464 11.3536C18.7402 11.4473 18.8674 11.5 19 11.5H25.5V14ZM19.5 10.5V5.20625L24.7925 10.5H19.5Z" fill="currentColor"/>
<path fill-rule="evenodd" clip-rule="evenodd" d="M12.421 8.13379C12.3941 8.09264 12.3577 8.05889 12.315 8.03555C12.2723 8.01221 12.2246 8 12.1761 8C12.1277 8 12.0799 8.01221 12.0372 8.03555C11.9945 8.05889 11.9581 8.09264 11.9313 8.13379L10.1481 10.7398L9.00075 9.06267C8.97409 9.02056 8.93751 8.98595 8.89435 8.96198C8.85119 8.93801 8.80283 8.92545 8.75369 8.92545C8.70454 8.92545 8.65618 8.93801 8.61302 8.96198C8.56987 8.98595 8.53328 9.02056 8.50662 9.06267L7.03623 11.5619L5.56584 14C5.53735 14.0453 5.56772 14.1355 5.56584 14.1892C5.56397 14.243 5.71697 14.2963 5.74223 14.3436C5.76749 14.3908 5.80475 14.4302 5.85009 14.4577C5.89544 14.4852 5.9472 14.4998 5.99995 14.4999L15.6495 14.5038C15.7028 14.5038 15.755 14.4891 15.8007 14.4612C15.8464 14.4333 15.8838 14.3932 15.909 14.3454C15.9341 14.2975 15.946 14.2435 15.9435 14.1892C15.9409 14.135 15.9239 14.0825 15.8944 14.0373L12.421 8.13379ZM8.94073 10.3682L7.97034 11.8889L6.99995 13.4999H14.5L12.1761 9.24993L10.3952 11.8665C10.3684 11.9083 10.3317 11.9424 10.2885 11.9658C10.2453 11.9891 10.197 12.0009 10.1481 12C10.0993 11.9996 10.0514 11.9869 10.0087 11.9629C9.96595 11.939 9.92972 11.9045 9.90326 11.8628L8.94073 10.3682Z" fill="currentColor"/>
<path d="M20.2956 26.0771C20.1049 26.0771 19.9546 26.0258 19.8446 25.9231C19.7419 25.8205 19.6906 25.6701 19.6906 25.4721V18.8611C19.6906 18.6631 19.7419 18.5128 19.8446 18.4101C19.9546 18.3001 20.1086 18.2451 20.3066 18.2451H24.2226C24.3839 18.2451 24.5012 18.2855 24.5746 18.3661C24.6552 18.4395 24.6956 18.5495 24.6956 18.6961C24.6956 18.8501 24.6552 18.9675 24.5746 19.0481C24.5012 19.1288 24.3839 19.1691 24.2226 19.1691H20.8346V21.6441H24.0026C24.1492 21.6441 24.2629 21.6845 24.3436 21.7651C24.4316 21.8385 24.4756 21.9485 24.4756 22.0951C24.4756 22.2491 24.4316 22.3665 24.3436 22.4471C24.2629 22.5278 24.1492 22.5681 24.0026 22.5681H20.8346V25.4721C20.8346 25.8755 20.6549 26.0771 20.2956 26.0771Z" fill="currentColor"/>
<path d="M16.3192 26.077C16.1359 26.077 15.9929 26.0256 15.8902 25.923C15.7949 25.8203 15.7472 25.6773 15.7472 25.494V18.751C15.7472 18.5603 15.7949 18.4173 15.8902 18.322C15.9929 18.2193 16.1359 18.168 16.3192 18.168C16.5025 18.168 16.6419 18.2193 16.7372 18.322C16.8399 18.4173 16.8912 18.5603 16.8912 18.751V25.494C16.8912 25.6773 16.8435 25.8203 16.7482 25.923C16.6529 26.0256 16.5099 26.077 16.3192 26.077Z" fill="currentColor"/>
<path d="M10.4866 26.0771C10.3033 26.0771 10.1603 26.0258 10.0576 25.9231C9.96231 25.8205 9.91465 25.6775 9.91465 25.4941V19.2021H7.58265C7.42865 19.2021 7.30765 19.1618 7.21965 19.0811C7.13165 18.9931 7.08765 18.8721 7.08765 18.7181C7.08765 18.5641 7.13165 18.4468 7.21965 18.3661C7.30765 18.2855 7.42865 18.2451 7.58265 18.2451H13.3796C13.541 18.2451 13.6656 18.2855 13.7536 18.3661C13.8416 18.4468 13.8856 18.5641 13.8856 18.7181C13.8856 18.8721 13.8416 18.9931 13.7536 19.0811C13.6656 19.1618 13.541 19.2021 13.3796 19.2021H11.0476V25.4941C11.0476 25.6775 11 25.8205 10.9046 25.9231C10.8166 26.0258 10.6773 26.0771 10.4866 26.0771Z" fill="currentColor"/>
</svg>
