<svg width="32" height="32" viewBox="0 0 32 32" fill="none" xmlns="http://www.w3.org/2000/svg">
<path d="M26.5 10V13C26.5 13.1326 26.4473 13.2598 26.3536 13.3536C26.2598 13.4473 26.1326 13.5 26 13.5C25.8674 13.5 25.7402 13.4473 25.6464 13.3536C25.5527 13.2598 25.5 13.1326 25.5 13V10.5H19C18.8674 10.5 18.7402 10.4473 18.6464 10.3536C18.5527 10.2598 18.5 10.1326 18.5 10V3.5H7C6.86739 3.5 6.74021 3.55268 6.64645 3.64645C6.55268 3.74022 6.5 3.86739 6.5 4V13C6.5 13.1326 6.44732 13.2598 6.35355 13.3536C6.25979 13.4473 6.13261 13.5 6 13.5C5.86739 13.5 5.74021 13.4473 5.64645 13.3536C5.55268 13.2598 5.5 13.1326 5.5 13V4C5.5 3.60218 5.65804 3.22064 5.93934 2.93934C6.22064 2.65804 6.60218 2.5 7 2.5H19C19.0657 2.49995 19.1307 2.51284 19.1914 2.53793C19.2521 2.56303 19.3073 2.59983 19.3538 2.64625L26.3538 9.64625C26.4002 9.69272 26.437 9.74788 26.4621 9.80857C26.4872 9.86927 26.5001 9.93432 26.5 10ZM24.7925 9.5L19.5 4.20625V9.5H24.7925Z" fill="white"/>
<path d="M23.9308 29.0562C23.8082 29.0562 23.7122 29.0215 23.6428 28.9522C23.5735 28.8829 23.5388 28.7842 23.5388 28.6562V23.7202C23.5388 23.5869 23.5708 23.4855 23.6348 23.4162C23.7042 23.3415 23.7948 23.3042 23.9068 23.3042C24.0028 23.3042 24.0748 23.3229 24.1228 23.3602C24.1762 23.3922 24.2375 23.4535 24.3068 23.5442L27.6028 27.8882H27.4028V23.6962C27.4028 23.5735 27.4348 23.4775 27.4988 23.4082C27.5682 23.3389 27.6642 23.3042 27.7868 23.3042C27.9148 23.3042 28.0108 23.3389 28.0748 23.4082C28.1388 23.4775 28.1708 23.5735 28.1708 23.6962V28.6642C28.1708 28.7869 28.1388 28.8829 28.0748 28.9522C28.0162 29.0215 27.9362 29.0562 27.8348 29.0562C27.7388 29.0562 27.6588 29.0375 27.5948 29.0002C27.5362 28.9629 27.4722 28.8989 27.4028 28.8082L24.1228 24.4722H24.3068V28.6562C24.3068 28.7842 24.2748 28.8829 24.2108 28.9522C24.1468 29.0215 24.0535 29.0562 23.9308 29.0562Z" fill="white"/>
<path d="M17.7837 29.0721C17.2503 29.0721 16.7837 28.9548 16.3837 28.7201C15.989 28.4801 15.6823 28.1441 15.4637 27.7121C15.2503 27.2748 15.1437 26.7628 15.1437 26.1761C15.1437 25.7334 15.205 25.3361 15.3277 24.9841C15.4503 24.6268 15.6263 24.3228 15.8557 24.0721C16.085 23.8161 16.3623 23.6214 16.6877 23.4881C17.013 23.3548 17.3783 23.2881 17.7837 23.2881C18.3223 23.2881 18.789 23.4054 19.1837 23.6401C19.5783 23.8748 19.8823 24.2081 20.0957 24.6401C20.3143 25.0721 20.4237 25.5814 20.4237 26.1681C20.4237 26.6108 20.3623 27.0108 20.2397 27.3681C20.117 27.7254 19.9383 28.0321 19.7037 28.2881C19.4743 28.5441 19.197 28.7388 18.8717 28.8721C18.5463 29.0054 18.1837 29.0721 17.7837 29.0721ZM17.7837 28.3521C18.157 28.3521 18.4743 28.2668 18.7357 28.0961C19.0023 27.9254 19.205 27.6774 19.3437 27.3521C19.4877 27.0268 19.5597 26.6348 19.5597 26.1761C19.5597 25.4881 19.405 24.9548 19.0957 24.5761C18.7863 24.1974 18.349 24.0081 17.7837 24.0081C17.4103 24.0081 17.0903 24.0934 16.8237 24.2641C16.5623 24.4294 16.3597 24.6748 16.2157 25.0001C16.077 25.3254 16.0077 25.7174 16.0077 26.1761C16.0077 26.8588 16.1623 27.3921 16.4717 27.7761C16.7863 28.1601 17.2237 28.3521 17.7837 28.3521Z" fill="white"/>
<path d="M10.2391 29.0721C9.99375 29.0721 9.75375 29.0534 9.51908 29.0161C9.28442 28.9788 9.06308 28.9228 8.85508 28.8481C8.64708 28.7681 8.46042 28.6721 8.29508 28.5601C8.21508 28.5014 8.15908 28.4348 8.12708 28.3601C8.10042 28.2854 8.09242 28.2134 8.10308 28.1441C8.11908 28.0694 8.15108 28.0054 8.19908 27.9521C8.24708 27.8988 8.30575 27.8668 8.37508 27.8561C8.44442 27.8401 8.52175 27.8614 8.60708 27.9201C8.84708 28.0748 9.10042 28.1894 9.36708 28.2641C9.63375 28.3334 9.92442 28.3681 10.2391 28.3681C10.6924 28.3681 11.0257 28.2881 11.2391 28.1281C11.4577 27.9628 11.5671 27.7494 11.5671 27.4881C11.5671 27.2748 11.4897 27.1068 11.3351 26.9841C11.1804 26.8561 10.9217 26.7548 10.5591 26.6801L9.70308 26.5041C9.19642 26.3974 8.81775 26.2214 8.56708 25.9761C8.32175 25.7308 8.19908 25.4001 8.19908 24.9841C8.19908 24.7334 8.24975 24.5041 8.35108 24.2961C8.45775 24.0881 8.60442 23.9094 8.79108 23.7601C8.97775 23.6054 9.20175 23.4881 9.46308 23.4081C9.72442 23.3281 10.0097 23.2881 10.3191 23.2881C10.6497 23.2881 10.9591 23.3308 11.2471 23.4161C11.5404 23.5014 11.8017 23.6321 12.0311 23.8081C12.1004 23.8561 12.1457 23.9174 12.1671 23.9921C12.1937 24.0614 12.1991 24.1308 12.1831 24.2001C12.1724 24.2694 12.1431 24.3281 12.0951 24.3761C12.0471 24.4241 11.9857 24.4534 11.9111 24.4641C11.8364 24.4694 11.7537 24.4428 11.6631 24.3841C11.4551 24.2454 11.2417 24.1468 11.0231 24.0881C10.8097 24.0241 10.5724 23.9921 10.3111 23.9921C10.0497 23.9921 9.82042 24.0321 9.62308 24.1121C9.43108 24.1921 9.28175 24.3041 9.17508 24.4481C9.07375 24.5921 9.02308 24.7628 9.02308 24.9601C9.02308 25.1841 9.09508 25.3628 9.23908 25.4961C9.38308 25.6294 9.62308 25.7308 9.95908 25.8001L10.8071 25.9761C11.3404 26.0881 11.7377 26.2614 11.9991 26.4961C12.2604 26.7308 12.3911 27.0428 12.3911 27.4321C12.3911 27.6828 12.3404 27.9094 12.2391 28.1121C12.1377 28.3094 11.9937 28.4801 11.8071 28.6241C11.6204 28.7681 11.3937 28.8801 11.1271 28.9601C10.8657 29.0348 10.5697 29.0721 10.2391 29.0721Z" fill="white"/>
<path d="M3.288 29.0482C3.16533 29.0535 3.06933 29.0215 3 28.9522C2.93066 28.8829 2.896 28.7949 2.896 28.6882C2.896 28.6082 2.92266 28.5362 2.976 28.4722C3.024 28.4082 3.096 28.3735 3.192 28.3682L3.44 28.3522C3.696 28.3309 3.89066 28.2455 4.024 28.0962C4.15733 27.9415 4.224 27.7282 4.224 27.4562V23.7202C4.224 23.5815 4.25866 23.4775 4.328 23.4082C4.39733 23.3389 4.49866 23.3042 4.632 23.3042C4.76533 23.3042 4.86666 23.3389 4.936 23.4082C5.01066 23.4775 5.048 23.5815 5.048 23.7202V27.4562C5.048 27.7762 4.98933 28.0509 4.872 28.2802C4.76 28.5042 4.59466 28.6802 4.376 28.8082C4.15733 28.9362 3.88533 29.0109 3.56 29.0322L3.288 29.0482Z" fill="white"/>
<path d="M23.1869 20.784C22.6535 20.784 22.1869 20.6667 21.7869 20.432C21.3922 20.192 21.0855 19.856 20.8669 19.424C20.6535 18.9867 20.5469 18.4747 20.5469 17.888C20.5469 17.4453 20.6082 17.048 20.7309 16.696C20.8535 16.3387 21.0295 16.0347 21.2589 15.784C21.4882 15.528 21.7655 15.3333 22.0909 15.2C22.4162 15.0667 22.7815 15 23.1869 15C23.7255 15 24.1922 15.1173 24.5869 15.352C24.9815 15.5867 25.2855 15.92 25.4989 16.352C25.7175 16.784 25.8269 17.2933 25.8269 17.88C25.8269 18.3227 25.7655 18.7227 25.6429 19.08C25.5202 19.4373 25.3415 19.744 25.1069 20C24.8775 20.256 24.6002 20.4507 24.2749 20.584C23.9495 20.7173 23.5869 20.784 23.1869 20.784ZM23.1869 20.064C23.5602 20.064 23.8775 19.9787 24.1389 19.808C24.4055 19.6373 24.6082 19.3893 24.7469 19.064C24.8909 18.7387 24.9629 18.3467 24.9629 17.888C24.9629 17.2 24.8082 16.6667 24.4989 16.288C24.1895 15.9093 23.7522 15.72 23.1869 15.72C22.8135 15.72 22.4935 15.8053 22.2269 15.976C21.9655 16.1413 21.7629 16.3867 21.6189 16.712C21.4802 17.0373 21.4109 17.4293 21.4109 17.888C21.4109 18.5707 21.5655 19.104 21.8749 19.488C22.1895 19.872 22.6269 20.064 23.1869 20.064Z" fill="white"/>
<path d="M14.4916 20.7123C14.3476 20.7123 14.2356 20.6749 14.1556 20.6003C14.0809 20.5203 14.0436 20.4083 14.0436 20.2643V15.5203C14.0436 15.3763 14.0809 15.2669 14.1556 15.1923C14.2356 15.1123 14.3476 15.0723 14.4916 15.0723H17.4116C17.5236 15.0723 17.6089 15.1016 17.6676 15.1603C17.7262 15.2136 17.7556 15.2936 17.7556 15.4003C17.7556 15.5123 17.7262 15.5976 17.6676 15.6563C17.6089 15.7149 17.5236 15.7443 17.4116 15.7443H14.8436V17.5123H17.2356C17.3529 17.5123 17.4382 17.5416 17.4916 17.6003C17.5502 17.6589 17.5796 17.7416 17.5796 17.8483C17.5796 17.9603 17.5502 18.0456 17.4916 18.1043C17.4382 18.1576 17.3529 18.1843 17.2356 18.1843H14.8436V20.0403H17.4116C17.5236 20.0403 17.6089 20.0696 17.6676 20.1283C17.7262 20.1869 17.7556 20.2696 17.7556 20.3763C17.7556 20.4883 17.7262 20.5736 17.6676 20.6323C17.6089 20.6856 17.5236 20.7123 17.4116 20.7123H14.4916Z" fill="white"/>
<path d="M8.832 20.784C8.21867 20.784 7.70133 20.6693 7.28 20.44C6.85867 20.2053 6.53867 19.872 6.32 19.44C6.10667 19.008 6 18.4933 6 17.896C6 17.448 6.06133 17.048 6.184 16.696C6.312 16.3387 6.49333 16.0347 6.728 15.784C6.968 15.528 7.25867 15.3333 7.6 15.2C7.94667 15.0667 8.33867 15 8.776 15C9.096 15 9.41067 15.0427 9.72 15.128C10.0293 15.208 10.312 15.3413 10.568 15.528C10.6427 15.5813 10.6907 15.6427 10.712 15.712C10.7333 15.7813 10.7333 15.8533 10.712 15.928C10.696 15.9973 10.6613 16.0587 10.608 16.112C10.56 16.1653 10.4987 16.1973 10.424 16.208C10.3547 16.2187 10.2773 16.1973 10.192 16.144C9.984 16 9.76533 15.896 9.536 15.832C9.30667 15.7627 9.05333 15.728 8.776 15.728C8.36 15.728 8.008 15.8133 7.72 15.984C7.43733 16.1547 7.224 16.4027 7.08 16.728C6.936 17.048 6.864 17.4373 6.864 17.896C6.864 18.6053 7.032 19.144 7.368 19.512C7.704 19.88 8.20267 20.064 8.864 20.064C9.104 20.064 9.33867 20.0427 9.568 20C9.80267 19.952 10.0267 19.8853 10.24 19.8L10.072 20.216V18.352H9.04C8.93333 18.352 8.848 18.3253 8.784 18.272C8.72533 18.2133 8.696 18.1333 8.696 18.032C8.696 17.9307 8.72533 17.856 8.784 17.808C8.848 17.7547 8.93333 17.728 9.04 17.728H10.424C10.536 17.728 10.6213 17.7573 10.68 17.816C10.7387 17.8747 10.768 17.96 10.768 18.072V20.088C10.768 20.184 10.7493 20.2667 10.712 20.336C10.68 20.4 10.624 20.448 10.544 20.48C10.3147 20.5707 10.0453 20.6453 9.736 20.704C9.42667 20.7573 9.12533 20.784 8.832 20.784Z" fill="white"/>
</svg>
